<mxfile host="app.diagrams.net" modified="2024-02-06T13:21:01.938Z" agent="Mozilla/5.0 (Macintosh; Intel Mac OS X 10_15_7) AppleWebKit/605.1.15 (KHTML, like Gecko) Version/17.1.2 Safari/605.1.15" etag="_WJm2AUTF5-Hm0nCxS0H" version="23.1.1" type="github" pages="4">
  <diagram name="物理内存管理" id="bZm6AAoV1MQ4xdPfTZnK">
    <mxGraphModel dx="1220" dy="2187" grid="1" gridSize="10" guides="1" tooltips="1" connect="1" arrows="1" fold="1" page="1" pageScale="1" pageWidth="827" pageHeight="1169" math="0" shadow="0">
      <root>
        <mxCell id="0" />
        <mxCell id="1" parent="0" />
        <mxCell id="1E2uD3RTG_QokNatGwro-1" value="pg_data_t" style="rounded=1;whiteSpace=wrap;html=1;verticalAlign=top;absoluteArcSize=1;" parent="1" vertex="1">
          <mxGeometry x="40" y="-80" width="210" height="70" as="geometry" />
        </mxCell>
        <mxCell id="1E2uD3RTG_QokNatGwro-6" style="edgeStyle=orthogonalEdgeStyle;rounded=1;orthogonalLoop=1;jettySize=auto;html=1;exitX=1;exitY=0.5;exitDx=0;exitDy=0;entryX=0;entryY=0.5;entryDx=0;entryDy=0;curved=0;" parent="1" source="1E2uD3RTG_QokNatGwro-2" target="1E2uD3RTG_QokNatGwro-3" edge="1">
          <mxGeometry relative="1" as="geometry" />
        </mxCell>
        <mxCell id="1E2uD3RTG_QokNatGwro-2" value="struct zone node_zones[];" style="rounded=0;whiteSpace=wrap;html=1;" parent="1" vertex="1">
          <mxGeometry x="50" y="-50" width="190" height="30" as="geometry" />
        </mxCell>
        <mxCell id="1E2uD3RTG_QokNatGwro-3" value="zone" style="rounded=1;whiteSpace=wrap;html=1;verticalAlign=top;absoluteArcSize=1;" parent="1" vertex="1">
          <mxGeometry x="320" y="80" width="210" height="110" as="geometry" />
        </mxCell>
        <mxCell id="1E2uD3RTG_QokNatGwro-4" value="unsigned long zone_start_pfn;" style="rounded=0;whiteSpace=wrap;html=1;" parent="1" vertex="1">
          <mxGeometry x="330" y="110" width="190" height="30" as="geometry" />
        </mxCell>
        <mxCell id="1E2uD3RTG_QokNatGwro-5" value="struct free_area free_area[MAX_ORDER]" style="rounded=0;whiteSpace=wrap;html=1;" parent="1" vertex="1">
          <mxGeometry x="330" y="140" width="190" height="40" as="geometry" />
        </mxCell>
        <mxCell id="1E2uD3RTG_QokNatGwro-8" value="page" style="rounded=1;whiteSpace=wrap;html=1;verticalAlign=top;absoluteArcSize=1;" parent="1" vertex="1">
          <mxGeometry x="714" y="-290" width="210" height="110" as="geometry" />
        </mxCell>
        <mxCell id="1E2uD3RTG_QokNatGwro-9" value="" style="rounded=0;whiteSpace=wrap;html=1;" parent="1" vertex="1">
          <mxGeometry x="724" y="-250" width="190" height="30" as="geometry" />
        </mxCell>
        <mxCell id="1E2uD3RTG_QokNatGwro-10" value="" style="rounded=0;whiteSpace=wrap;html=1;" parent="1" vertex="1">
          <mxGeometry x="724" y="-220" width="190" height="30" as="geometry" />
        </mxCell>
        <mxCell id="1E2uD3RTG_QokNatGwro-12" value="free_area" style="rounded=1;whiteSpace=wrap;html=1;verticalAlign=top;absoluteArcSize=1;" parent="1" vertex="1">
          <mxGeometry x="724" width="240" height="125" as="geometry" />
        </mxCell>
        <mxCell id="1E2uD3RTG_QokNatGwro-13" value="struct list_head free_list[MIGRATE_TYPES];" style="rounded=0;whiteSpace=wrap;html=1;" parent="1" vertex="1">
          <mxGeometry x="734" y="35" width="220" height="40" as="geometry" />
        </mxCell>
        <mxCell id="1E2uD3RTG_QokNatGwro-14" value="unsignedlong nr_free;" style="rounded=0;whiteSpace=wrap;html=1;" parent="1" vertex="1">
          <mxGeometry x="734" y="75" width="220" height="40" as="geometry" />
        </mxCell>
        <mxCell id="AAmirA7ccoVl2TNo1n5s-2" value="" style="rounded=0;whiteSpace=wrap;html=1;" parent="1" vertex="1">
          <mxGeometry x="414" y="-190" width="30" height="20" as="geometry" />
        </mxCell>
        <mxCell id="AAmirA7ccoVl2TNo1n5s-4" value="" style="rounded=0;whiteSpace=wrap;html=1;" parent="1" vertex="1">
          <mxGeometry x="444" y="-190" width="30" height="20" as="geometry" />
        </mxCell>
        <mxCell id="m-hAG653BJ8v5ImfXSyI-11" style="edgeStyle=orthogonalEdgeStyle;rounded=1;orthogonalLoop=1;jettySize=auto;html=1;exitX=0.5;exitY=0;exitDx=0;exitDy=0;entryX=0;entryY=0.5;entryDx=0;entryDy=0;curved=0;" parent="1" source="m-hAG653BJ8v5ImfXSyI-14" target="1E2uD3RTG_QokNatGwro-8" edge="1">
          <mxGeometry relative="1" as="geometry">
            <mxPoint x="894" y="200" as="sourcePoint" />
          </mxGeometry>
        </mxCell>
        <mxCell id="m-hAG653BJ8v5ImfXSyI-12" value="" style="rounded=0;whiteSpace=wrap;html=1;" parent="1" vertex="1">
          <mxGeometry x="474" y="-190" width="30" height="20" as="geometry" />
        </mxCell>
        <mxCell id="m-hAG653BJ8v5ImfXSyI-13" value="" style="rounded=0;whiteSpace=wrap;html=1;" parent="1" vertex="1">
          <mxGeometry x="504" y="-190" width="30" height="20" as="geometry" />
        </mxCell>
        <mxCell id="m-hAG653BJ8v5ImfXSyI-14" value="" style="rounded=0;whiteSpace=wrap;html=1;" parent="1" vertex="1">
          <mxGeometry x="534" y="-190" width="30" height="20" as="geometry" />
        </mxCell>
        <mxCell id="m-hAG653BJ8v5ImfXSyI-15" value="..." style="rounded=0;whiteSpace=wrap;html=1;" parent="1" vertex="1">
          <mxGeometry x="564" y="-190" width="30" height="20" as="geometry" />
        </mxCell>
        <mxCell id="m-hAG653BJ8v5ImfXSyI-16" value="" style="rounded=0;whiteSpace=wrap;html=1;" parent="1" vertex="1">
          <mxGeometry x="594" y="-190" width="30" height="20" as="geometry" />
        </mxCell>
        <mxCell id="m-hAG653BJ8v5ImfXSyI-17" value="" style="rounded=0;whiteSpace=wrap;html=1;" parent="1" vertex="1">
          <mxGeometry x="624" y="-190" width="30" height="20" as="geometry" />
        </mxCell>
        <mxCell id="zPqsa8i-0Yz0Tx2IFwxK-8" value="" style="shape=curlyBracket;whiteSpace=wrap;html=1;rounded=1;flipH=1;labelPosition=right;verticalLabelPosition=middle;align=left;verticalAlign=middle;fontFamily=Helvetica;fontSize=11;fontColor=default;direction=north;" parent="1" vertex="1">
          <mxGeometry x="414" y="-168" width="240" height="20" as="geometry" />
        </mxCell>
        <mxCell id="zPqsa8i-0Yz0Tx2IFwxK-9" value="struct page数组" style="text;html=1;align=center;verticalAlign=middle;resizable=0;points=[];autosize=1;strokeColor=none;fillColor=none;fontSize=11;fontFamily=Helvetica;fontColor=default;fontStyle=1" parent="1" vertex="1">
          <mxGeometry x="484" y="-159" width="100" height="30" as="geometry" />
        </mxCell>
        <mxCell id="zPqsa8i-0Yz0Tx2IFwxK-26" value="zone类型" style="text;html=1;align=center;verticalAlign=middle;resizable=0;points=[];autosize=1;strokeColor=none;fillColor=none;fontSize=11;fontFamily=Helvetica;fontColor=default;" parent="1" vertex="1">
          <mxGeometry x="380" y="194.5" width="70" height="30" as="geometry" />
        </mxCell>
        <mxCell id="zPqsa8i-0Yz0Tx2IFwxK-27" value="NUMA节点" style="text;html=1;align=center;verticalAlign=middle;resizable=0;points=[];autosize=1;strokeColor=none;fillColor=none;fontSize=11;fontFamily=Helvetica;fontColor=default;" parent="1" vertex="1">
          <mxGeometry x="60" y="198.5" width="80" height="30" as="geometry" />
        </mxCell>
        <mxCell id="zPqsa8i-0Yz0Tx2IFwxK-29" style="edgeStyle=orthogonalEdgeStyle;shape=connector;curved=0;rounded=1;orthogonalLoop=1;jettySize=auto;html=1;exitX=1;exitY=0.5;exitDx=0;exitDy=0;entryX=0;entryY=0.5;entryDx=0;entryDy=0;labelBackgroundColor=default;strokeColor=default;align=center;verticalAlign=middle;fontFamily=Helvetica;fontSize=11;fontColor=default;endArrow=classic;" parent="1" source="zPqsa8i-0Yz0Tx2IFwxK-28" target="AAmirA7ccoVl2TNo1n5s-2" edge="1">
          <mxGeometry relative="1" as="geometry" />
        </mxCell>
        <mxCell id="zPqsa8i-0Yz0Tx2IFwxK-28" value="struct page *mem_map" style="rounded=1;whiteSpace=wrap;html=1;fontFamily=Helvetica;fontSize=11;fontColor=default;" parent="1" vertex="1">
          <mxGeometry x="240" y="-200" width="120" height="40" as="geometry" />
        </mxCell>
        <mxCell id="OdCkryZ9V_KA-MDpG2l--11" style="edgeStyle=orthogonalEdgeStyle;shape=connector;rounded=1;orthogonalLoop=1;jettySize=auto;html=1;exitX=1;exitY=0.25;exitDx=0;exitDy=0;entryX=0;entryY=0.5;entryDx=0;entryDy=0;labelBackgroundColor=default;strokeColor=default;align=center;verticalAlign=middle;fontFamily=Helvetica;fontSize=11;fontColor=default;endArrow=classic;" parent="1" source="OdCkryZ9V_KA-MDpG2l--1" target="1E2uD3RTG_QokNatGwro-12" edge="1">
          <mxGeometry relative="1" as="geometry" />
        </mxCell>
        <mxCell id="OdCkryZ9V_KA-MDpG2l--1" value="0" style="rounded=0;whiteSpace=wrap;html=1;fontFamily=Helvetica;fontSize=11;fontColor=default;" parent="1" vertex="1">
          <mxGeometry x="600" y="55" width="90" height="30" as="geometry" />
        </mxCell>
        <mxCell id="OdCkryZ9V_KA-MDpG2l--2" value="1" style="rounded=0;whiteSpace=wrap;html=1;fontFamily=Helvetica;fontSize=11;fontColor=default;" parent="1" vertex="1">
          <mxGeometry x="600" y="85" width="90" height="30" as="geometry" />
        </mxCell>
        <mxCell id="OdCkryZ9V_KA-MDpG2l--3" value="2" style="rounded=0;whiteSpace=wrap;html=1;fontFamily=Helvetica;fontSize=11;fontColor=default;" parent="1" vertex="1">
          <mxGeometry x="600" y="115" width="90" height="30" as="geometry" />
        </mxCell>
        <mxCell id="OdCkryZ9V_KA-MDpG2l--4" value="3" style="rounded=0;whiteSpace=wrap;html=1;fontFamily=Helvetica;fontSize=11;fontColor=default;" parent="1" vertex="1">
          <mxGeometry x="600" y="145" width="90" height="30" as="geometry" />
        </mxCell>
        <mxCell id="OdCkryZ9V_KA-MDpG2l--5" value="4" style="rounded=0;whiteSpace=wrap;html=1;fontFamily=Helvetica;fontSize=11;fontColor=default;" parent="1" vertex="1">
          <mxGeometry x="600" y="175" width="90" height="30" as="geometry" />
        </mxCell>
        <mxCell id="OdCkryZ9V_KA-MDpG2l--6" value="MAX_ORDER-1" style="rounded=0;whiteSpace=wrap;html=1;fontFamily=Helvetica;fontSize=11;fontColor=default;" parent="1" vertex="1">
          <mxGeometry x="600" y="235" width="90" height="30" as="geometry" />
        </mxCell>
        <mxCell id="OdCkryZ9V_KA-MDpG2l--7" value="..." style="rounded=0;whiteSpace=wrap;html=1;fontFamily=Helvetica;fontSize=11;fontColor=default;" parent="1" vertex="1">
          <mxGeometry x="600" y="205" width="90" height="30" as="geometry" />
        </mxCell>
        <mxCell id="OdCkryZ9V_KA-MDpG2l--9" value="" style="shape=curlyBracket;whiteSpace=wrap;html=1;rounded=1;labelPosition=left;verticalLabelPosition=middle;align=right;verticalAlign=middle;fontFamily=Helvetica;fontSize=11;fontColor=default;" parent="1" vertex="1">
          <mxGeometry x="577" y="55" width="20" height="210" as="geometry" />
        </mxCell>
        <mxCell id="OdCkryZ9V_KA-MDpG2l--10" style="edgeStyle=orthogonalEdgeStyle;shape=connector;rounded=1;orthogonalLoop=1;jettySize=auto;html=1;exitX=1;exitY=0.5;exitDx=0;exitDy=0;entryX=0.1;entryY=0.5;entryDx=0;entryDy=0;entryPerimeter=0;labelBackgroundColor=default;strokeColor=default;align=center;verticalAlign=middle;fontFamily=Helvetica;fontSize=11;fontColor=default;endArrow=classic;" parent="1" source="1E2uD3RTG_QokNatGwro-5" target="OdCkryZ9V_KA-MDpG2l--9" edge="1">
          <mxGeometry relative="1" as="geometry" />
        </mxCell>
        <mxCell id="OdCkryZ9V_KA-MDpG2l--21" style="edgeStyle=orthogonalEdgeStyle;shape=connector;rounded=1;orthogonalLoop=1;jettySize=auto;html=1;entryX=0;entryY=0.5;entryDx=0;entryDy=0;labelBackgroundColor=default;strokeColor=default;align=center;verticalAlign=middle;fontFamily=Helvetica;fontSize=11;fontColor=default;endArrow=classic;" parent="1" source="OdCkryZ9V_KA-MDpG2l--12" target="OdCkryZ9V_KA-MDpG2l--20" edge="1">
          <mxGeometry relative="1" as="geometry" />
        </mxCell>
        <mxCell id="OdCkryZ9V_KA-MDpG2l--12" value="" style="rounded=0;whiteSpace=wrap;html=1;fontFamily=Helvetica;fontSize=11;fontColor=default;" parent="1" vertex="1">
          <mxGeometry x="1023" y="-20" width="80" height="30" as="geometry" />
        </mxCell>
        <mxCell id="OdCkryZ9V_KA-MDpG2l--13" value="" style="rounded=0;whiteSpace=wrap;html=1;fontFamily=Helvetica;fontSize=11;fontColor=default;" parent="1" vertex="1">
          <mxGeometry x="1023" y="10" width="80" height="30" as="geometry" />
        </mxCell>
        <mxCell id="OdCkryZ9V_KA-MDpG2l--14" value="" style="rounded=0;whiteSpace=wrap;html=1;fontFamily=Helvetica;fontSize=11;fontColor=default;" parent="1" vertex="1">
          <mxGeometry x="1023" y="40" width="80" height="30" as="geometry" />
        </mxCell>
        <mxCell id="OdCkryZ9V_KA-MDpG2l--15" value="" style="rounded=0;whiteSpace=wrap;html=1;fontFamily=Helvetica;fontSize=11;fontColor=default;" parent="1" vertex="1">
          <mxGeometry x="1023" y="70" width="80" height="30" as="geometry" />
        </mxCell>
        <mxCell id="OdCkryZ9V_KA-MDpG2l--16" value="" style="rounded=0;whiteSpace=wrap;html=1;fontFamily=Helvetica;fontSize=11;fontColor=default;" parent="1" vertex="1">
          <mxGeometry x="1023" y="100" width="80" height="30" as="geometry" />
        </mxCell>
        <mxCell id="OdCkryZ9V_KA-MDpG2l--17" value="" style="shape=curlyBracket;whiteSpace=wrap;html=1;rounded=1;labelPosition=left;verticalLabelPosition=middle;align=right;verticalAlign=middle;fontFamily=Helvetica;fontSize=11;fontColor=default;" parent="1" vertex="1">
          <mxGeometry x="1000" y="-20" width="20" height="150" as="geometry" />
        </mxCell>
        <mxCell id="OdCkryZ9V_KA-MDpG2l--18" style="edgeStyle=orthogonalEdgeStyle;shape=connector;rounded=1;orthogonalLoop=1;jettySize=auto;html=1;exitX=1;exitY=0.5;exitDx=0;exitDy=0;entryX=0.1;entryY=0.5;entryDx=0;entryDy=0;entryPerimeter=0;labelBackgroundColor=default;strokeColor=default;align=center;verticalAlign=middle;fontFamily=Helvetica;fontSize=11;fontColor=default;endArrow=classic;" parent="1" source="1E2uD3RTG_QokNatGwro-13" target="OdCkryZ9V_KA-MDpG2l--17" edge="1">
          <mxGeometry relative="1" as="geometry" />
        </mxCell>
        <mxCell id="OdCkryZ9V_KA-MDpG2l--22" style="edgeStyle=orthogonalEdgeStyle;shape=connector;rounded=1;orthogonalLoop=1;jettySize=auto;html=1;exitX=0.5;exitY=0;exitDx=0;exitDy=0;entryX=0.5;entryY=1;entryDx=0;entryDy=0;labelBackgroundColor=default;strokeColor=default;align=center;verticalAlign=middle;fontFamily=Helvetica;fontSize=11;fontColor=default;endArrow=classic;" parent="1" source="OdCkryZ9V_KA-MDpG2l--20" target="1E2uD3RTG_QokNatGwro-8" edge="1">
          <mxGeometry relative="1" as="geometry" />
        </mxCell>
        <mxCell id="OdCkryZ9V_KA-MDpG2l--20" value="" style="rounded=0;whiteSpace=wrap;html=1;fontFamily=Helvetica;fontSize=11;fontColor=default;" parent="1" vertex="1">
          <mxGeometry x="1150" y="-19" width="40" height="29" as="geometry" />
        </mxCell>
      </root>
    </mxGraphModel>
  </diagram>
  <diagram id="V3_UN_a4B6vTCJUvI1mB" name="slub">
    <mxGraphModel dx="1220" dy="1018" grid="1" gridSize="10" guides="1" tooltips="1" connect="1" arrows="1" fold="1" page="1" pageScale="1" pageWidth="827" pageHeight="1169" math="0" shadow="0">
      <root>
        <mxCell id="0" />
        <mxCell id="1" parent="0" />
        <mxCell id="hfGYfm9bNlfdjjh0xqnI-1" value="kem_cache" style="rounded=1;whiteSpace=wrap;html=1;verticalAlign=top;absoluteArcSize=1;" parent="1" vertex="1">
          <mxGeometry x="120" y="200" width="230" height="160" as="geometry" />
        </mxCell>
        <mxCell id="hfGYfm9bNlfdjjh0xqnI-12" style="edgeStyle=orthogonalEdgeStyle;rounded=1;orthogonalLoop=1;jettySize=auto;html=1;exitX=1;exitY=0.5;exitDx=0;exitDy=0;entryX=0;entryY=0.5;entryDx=0;entryDy=0;curved=0;" parent="1" source="hfGYfm9bNlfdjjh0xqnI-2" target="hfGYfm9bNlfdjjh0xqnI-9" edge="1">
          <mxGeometry relative="1" as="geometry" />
        </mxCell>
        <mxCell id="hfGYfm9bNlfdjjh0xqnI-2" value="struct kmem_cache_cpu __percpu *cpu_slab;" style="rounded=0;whiteSpace=wrap;html=1;" parent="1" vertex="1">
          <mxGeometry x="130" y="240" width="210" height="40" as="geometry" />
        </mxCell>
        <mxCell id="hfGYfm9bNlfdjjh0xqnI-16" style="edgeStyle=orthogonalEdgeStyle;rounded=1;orthogonalLoop=1;jettySize=auto;html=1;exitX=1;exitY=0.5;exitDx=0;exitDy=0;entryX=0;entryY=0.5;entryDx=0;entryDy=0;curved=0;" parent="1" source="hfGYfm9bNlfdjjh0xqnI-3" target="hfGYfm9bNlfdjjh0xqnI-13" edge="1">
          <mxGeometry relative="1" as="geometry" />
        </mxCell>
        <mxCell id="hfGYfm9bNlfdjjh0xqnI-3" value="struct kmem_cache_node *node[MAX_NUMNODES];" style="rounded=0;whiteSpace=wrap;html=1;" parent="1" vertex="1">
          <mxGeometry x="130" y="280" width="210" height="40" as="geometry" />
        </mxCell>
        <mxCell id="hfGYfm9bNlfdjjh0xqnI-8" value="static struct kmem_cache *kmem_cache_node;" style="text;html=1;strokeColor=none;fillColor=none;align=center;verticalAlign=middle;whiteSpace=wrap;rounded=0;" parent="1" vertex="1">
          <mxGeometry x="70" y="140" width="280" height="30" as="geometry" />
        </mxCell>
        <mxCell id="hfGYfm9bNlfdjjh0xqnI-9" value="kem_cache_cpu" style="rounded=1;whiteSpace=wrap;html=1;verticalAlign=top;absoluteArcSize=1;" parent="1" vertex="1">
          <mxGeometry x="480" y="80" width="230" height="140" as="geometry" />
        </mxCell>
        <mxCell id="hfGYfm9bNlfdjjh0xqnI-10" value="void **freelist;" style="rounded=0;whiteSpace=wrap;html=1;" parent="1" vertex="1">
          <mxGeometry x="490" y="120" width="210" height="30" as="geometry" />
        </mxCell>
        <mxCell id="hfGYfm9bNlfdjjh0xqnI-20" style="edgeStyle=orthogonalEdgeStyle;rounded=1;orthogonalLoop=1;jettySize=auto;html=1;exitX=1;exitY=0.5;exitDx=0;exitDy=0;entryX=0;entryY=0.5;entryDx=0;entryDy=0;curved=0;" parent="1" source="hfGYfm9bNlfdjjh0xqnI-11" target="fTsqoePo69IkHv7tenj3-1" edge="1">
          <mxGeometry relative="1" as="geometry">
            <mxPoint x="750" y="165" as="targetPoint" />
          </mxGeometry>
        </mxCell>
        <mxCell id="hfGYfm9bNlfdjjh0xqnI-11" value="struct page *page;" style="rounded=0;whiteSpace=wrap;html=1;" parent="1" vertex="1">
          <mxGeometry x="490" y="150" width="210" height="30" as="geometry" />
        </mxCell>
        <mxCell id="hfGYfm9bNlfdjjh0xqnI-13" value="kem_cache_node" style="rounded=1;whiteSpace=wrap;html=1;verticalAlign=top;absoluteArcSize=1;" parent="1" vertex="1">
          <mxGeometry x="480" y="400" width="230" height="110" as="geometry" />
        </mxCell>
        <mxCell id="hfGYfm9bNlfdjjh0xqnI-14" value="unsigned long nr_partial;" style="rounded=0;whiteSpace=wrap;html=1;" parent="1" vertex="1">
          <mxGeometry x="490" y="440" width="210" height="30" as="geometry" />
        </mxCell>
        <mxCell id="hfGYfm9bNlfdjjh0xqnI-15" value="struct list_head partial;" style="rounded=0;whiteSpace=wrap;html=1;" parent="1" vertex="1">
          <mxGeometry x="490" y="470" width="210" height="30" as="geometry" />
        </mxCell>
        <mxCell id="hfGYfm9bNlfdjjh0xqnI-17" value="struct list_head list;" style="rounded=0;whiteSpace=wrap;html=1;" parent="1" vertex="1">
          <mxGeometry x="130" y="320" width="210" height="30" as="geometry" />
        </mxCell>
        <mxCell id="hfGYfm9bNlfdjjh0xqnI-18" value="struct page *partial;" style="rounded=0;whiteSpace=wrap;html=1;" parent="1" vertex="1">
          <mxGeometry x="490" y="180" width="210" height="30" as="geometry" />
        </mxCell>
        <mxCell id="fTsqoePo69IkHv7tenj3-1" value="page" style="rounded=1;whiteSpace=wrap;html=1;verticalAlign=top;absoluteArcSize=1;" parent="1" vertex="1">
          <mxGeometry x="780" y="220" width="210" height="110" as="geometry" />
        </mxCell>
        <mxCell id="fTsqoePo69IkHv7tenj3-2" value="struct kmem_cache *slab_cache;" style="rounded=0;whiteSpace=wrap;html=1;" parent="1" vertex="1">
          <mxGeometry x="790" y="260" width="190" height="30" as="geometry" />
        </mxCell>
        <mxCell id="fTsqoePo69IkHv7tenj3-3" value="void *freelist;" style="rounded=0;whiteSpace=wrap;html=1;" parent="1" vertex="1">
          <mxGeometry x="790" y="290" width="190" height="30" as="geometry" />
        </mxCell>
        <mxCell id="fTsqoePo69IkHv7tenj3-7" style="edgeStyle=orthogonalEdgeStyle;rounded=1;orthogonalLoop=1;jettySize=auto;html=1;exitX=0.25;exitY=1;exitDx=0;exitDy=0;entryX=0;entryY=0.5;entryDx=0;entryDy=0;curved=0;" parent="1" source="fTsqoePo69IkHv7tenj3-4" target="fTsqoePo69IkHv7tenj3-5" edge="1">
          <mxGeometry relative="1" as="geometry" />
        </mxCell>
        <mxCell id="fTsqoePo69IkHv7tenj3-4" value="kmem_cache_create" style="rounded=1;whiteSpace=wrap;html=1;" parent="1" vertex="1">
          <mxGeometry x="5" y="760" width="140" height="40" as="geometry" />
        </mxCell>
        <mxCell id="fTsqoePo69IkHv7tenj3-8" style="edgeStyle=orthogonalEdgeStyle;rounded=1;orthogonalLoop=1;jettySize=auto;html=1;exitX=0.25;exitY=1;exitDx=0;exitDy=0;entryX=0;entryY=0.5;entryDx=0;entryDy=0;" parent="1" source="fTsqoePo69IkHv7tenj3-5" target="fTsqoePo69IkHv7tenj3-6" edge="1">
          <mxGeometry relative="1" as="geometry" />
        </mxCell>
        <mxCell id="fTsqoePo69IkHv7tenj3-5" value="kmem_cache_create_usercopy" style="rounded=1;whiteSpace=wrap;html=1;" parent="1" vertex="1">
          <mxGeometry x="75" y="820" width="180" height="40" as="geometry" />
        </mxCell>
        <mxCell id="fTsqoePo69IkHv7tenj3-12" style="edgeStyle=orthogonalEdgeStyle;rounded=1;orthogonalLoop=1;jettySize=auto;html=1;exitX=0.25;exitY=1;exitDx=0;exitDy=0;entryX=0;entryY=0.5;entryDx=0;entryDy=0;" parent="1" source="fTsqoePo69IkHv7tenj3-6" target="fTsqoePo69IkHv7tenj3-9" edge="1">
          <mxGeometry relative="1" as="geometry" />
        </mxCell>
        <mxCell id="fTsqoePo69IkHv7tenj3-14" style="edgeStyle=orthogonalEdgeStyle;rounded=1;orthogonalLoop=1;jettySize=auto;html=1;exitX=0.25;exitY=1;exitDx=0;exitDy=0;entryX=0;entryY=0.5;entryDx=0;entryDy=0;" parent="1" source="fTsqoePo69IkHv7tenj3-6" target="fTsqoePo69IkHv7tenj3-11" edge="1">
          <mxGeometry relative="1" as="geometry" />
        </mxCell>
        <mxCell id="8wZrcc3XsJZtxt9ual1O-3" style="edgeStyle=orthogonalEdgeStyle;shape=connector;rounded=1;orthogonalLoop=1;jettySize=auto;html=1;exitX=0.25;exitY=1;exitDx=0;exitDy=0;entryX=0;entryY=0.5;entryDx=0;entryDy=0;labelBackgroundColor=default;strokeColor=default;align=center;verticalAlign=middle;fontFamily=Helvetica;fontSize=11;fontColor=default;endArrow=classic;" parent="1" source="fTsqoePo69IkHv7tenj3-6" target="8wZrcc3XsJZtxt9ual1O-2" edge="1">
          <mxGeometry relative="1" as="geometry" />
        </mxCell>
        <mxCell id="fTsqoePo69IkHv7tenj3-6" value="create_cache" style="rounded=1;whiteSpace=wrap;html=1;" parent="1" vertex="1">
          <mxGeometry x="155" y="880" width="120" height="40" as="geometry" />
        </mxCell>
        <mxCell id="fTsqoePo69IkHv7tenj3-9" value="kmem_cache_zalloc" style="rounded=1;whiteSpace=wrap;html=1;" parent="1" vertex="1">
          <mxGeometry x="220" y="940" width="160" height="40" as="geometry" />
        </mxCell>
        <mxCell id="fTsqoePo69IkHv7tenj3-17" style="edgeStyle=orthogonalEdgeStyle;rounded=1;orthogonalLoop=1;jettySize=auto;html=1;exitX=0.25;exitY=1;exitDx=0;exitDy=0;entryX=0;entryY=0.5;entryDx=0;entryDy=0;" parent="1" source="fTsqoePo69IkHv7tenj3-10" target="fTsqoePo69IkHv7tenj3-15" edge="1">
          <mxGeometry relative="1" as="geometry" />
        </mxCell>
        <mxCell id="fTsqoePo69IkHv7tenj3-18" style="edgeStyle=orthogonalEdgeStyle;rounded=1;orthogonalLoop=1;jettySize=auto;html=1;exitX=0.25;exitY=1;exitDx=0;exitDy=0;entryX=0;entryY=0.5;entryDx=0;entryDy=0;" parent="1" source="fTsqoePo69IkHv7tenj3-10" target="fTsqoePo69IkHv7tenj3-16" edge="1">
          <mxGeometry relative="1" as="geometry" />
        </mxCell>
        <mxCell id="fTsqoePo69IkHv7tenj3-10" value="__kmem_cache_create" style="rounded=1;whiteSpace=wrap;html=1;" parent="1" vertex="1">
          <mxGeometry x="480" y="760" width="160" height="40" as="geometry" />
        </mxCell>
        <mxCell id="fTsqoePo69IkHv7tenj3-11" value="list_add(&amp;amp;slab_caches);" style="rounded=1;whiteSpace=wrap;html=1;" parent="1" vertex="1">
          <mxGeometry x="220" y="1060" width="160" height="40" as="geometry" />
        </mxCell>
        <mxCell id="fTsqoePo69IkHv7tenj3-21" style="edgeStyle=orthogonalEdgeStyle;rounded=1;orthogonalLoop=1;jettySize=auto;html=1;exitX=0.25;exitY=1;exitDx=0;exitDy=0;entryX=0;entryY=0.5;entryDx=0;entryDy=0;" parent="1" source="fTsqoePo69IkHv7tenj3-15" target="fTsqoePo69IkHv7tenj3-19" edge="1">
          <mxGeometry relative="1" as="geometry" />
        </mxCell>
        <mxCell id="fTsqoePo69IkHv7tenj3-22" style="edgeStyle=orthogonalEdgeStyle;rounded=1;orthogonalLoop=1;jettySize=auto;html=1;exitX=0.25;exitY=1;exitDx=0;exitDy=0;entryX=0;entryY=0.5;entryDx=0;entryDy=0;" parent="1" source="fTsqoePo69IkHv7tenj3-15" target="fTsqoePo69IkHv7tenj3-20" edge="1">
          <mxGeometry relative="1" as="geometry" />
        </mxCell>
        <mxCell id="fTsqoePo69IkHv7tenj3-15" value="kem_cache_open" style="rounded=1;whiteSpace=wrap;html=1;" parent="1" vertex="1">
          <mxGeometry x="560" y="820" width="160" height="40" as="geometry" />
        </mxCell>
        <mxCell id="fTsqoePo69IkHv7tenj3-16" value="sysfs_slab_add" style="rounded=1;whiteSpace=wrap;html=1;" parent="1" vertex="1">
          <mxGeometry x="560" y="1360" width="160" height="40" as="geometry" />
        </mxCell>
        <mxCell id="fTsqoePo69IkHv7tenj3-28" style="edgeStyle=orthogonalEdgeStyle;rounded=1;orthogonalLoop=1;jettySize=auto;html=1;exitX=0.25;exitY=1;exitDx=0;exitDy=0;entryX=0;entryY=0.5;entryDx=0;entryDy=0;" parent="1" source="fTsqoePo69IkHv7tenj3-19" target="fTsqoePo69IkHv7tenj3-24" edge="1">
          <mxGeometry relative="1" as="geometry" />
        </mxCell>
        <mxCell id="fTsqoePo69IkHv7tenj3-19" value="init_kmem_cache_nodes" style="rounded=1;whiteSpace=wrap;html=1;" parent="1" vertex="1">
          <mxGeometry x="640" y="880" width="160" height="40" as="geometry" />
        </mxCell>
        <mxCell id="fTsqoePo69IkHv7tenj3-33" style="edgeStyle=orthogonalEdgeStyle;rounded=1;orthogonalLoop=1;jettySize=auto;html=1;exitX=0.25;exitY=1;exitDx=0;exitDy=0;entryX=0;entryY=0.75;entryDx=0;entryDy=0;" parent="1" source="fTsqoePo69IkHv7tenj3-20" target="fTsqoePo69IkHv7tenj3-31" edge="1">
          <mxGeometry relative="1" as="geometry" />
        </mxCell>
        <mxCell id="fTsqoePo69IkHv7tenj3-34" style="edgeStyle=orthogonalEdgeStyle;rounded=1;orthogonalLoop=1;jettySize=auto;html=1;exitX=0.25;exitY=1;exitDx=0;exitDy=0;entryX=0;entryY=0.5;entryDx=0;entryDy=0;" parent="1" source="fTsqoePo69IkHv7tenj3-20" target="fTsqoePo69IkHv7tenj3-32" edge="1">
          <mxGeometry relative="1" as="geometry" />
        </mxCell>
        <mxCell id="fTsqoePo69IkHv7tenj3-20" value="alloc_kmem_cache_cpus" style="rounded=1;whiteSpace=wrap;html=1;" parent="1" vertex="1">
          <mxGeometry x="640" y="1180" width="160" height="40" as="geometry" />
        </mxCell>
        <mxCell id="fTsqoePo69IkHv7tenj3-29" style="edgeStyle=orthogonalEdgeStyle;rounded=1;orthogonalLoop=1;jettySize=auto;html=1;exitX=0.25;exitY=1;exitDx=0;exitDy=0;entryX=0;entryY=0.5;entryDx=0;entryDy=0;" parent="1" source="fTsqoePo69IkHv7tenj3-24" target="fTsqoePo69IkHv7tenj3-26" edge="1">
          <mxGeometry relative="1" as="geometry" />
        </mxCell>
        <mxCell id="fTsqoePo69IkHv7tenj3-30" style="edgeStyle=orthogonalEdgeStyle;rounded=1;orthogonalLoop=1;jettySize=auto;html=1;exitX=0.25;exitY=1;exitDx=0;exitDy=0;entryX=0;entryY=0.5;entryDx=0;entryDy=0;" parent="1" source="fTsqoePo69IkHv7tenj3-24" target="fTsqoePo69IkHv7tenj3-27" edge="1">
          <mxGeometry relative="1" as="geometry" />
        </mxCell>
        <mxCell id="nb7vk2UFu0yFhdqlse9p-8" style="edgeStyle=orthogonalEdgeStyle;shape=connector;rounded=1;orthogonalLoop=1;jettySize=auto;html=1;exitX=0.25;exitY=1;exitDx=0;exitDy=0;entryX=0;entryY=0.5;entryDx=0;entryDy=0;labelBackgroundColor=default;strokeColor=default;align=center;verticalAlign=middle;fontFamily=Helvetica;fontSize=11;fontColor=default;endArrow=classic;" parent="1" source="fTsqoePo69IkHv7tenj3-24" target="nb7vk2UFu0yFhdqlse9p-4" edge="1">
          <mxGeometry relative="1" as="geometry" />
        </mxCell>
        <mxCell id="fTsqoePo69IkHv7tenj3-24" value="for_each_node_state(node, N_NORMAL_MEMORY) {" style="rounded=0;whiteSpace=wrap;html=1;" parent="1" vertex="1">
          <mxGeometry x="720" y="940" width="300" height="30" as="geometry" />
        </mxCell>
        <mxCell id="fTsqoePo69IkHv7tenj3-26" value="kmem_cache_alloc_node" style="rounded=1;whiteSpace=wrap;html=1;" parent="1" vertex="1">
          <mxGeometry x="840" y="1060" width="160" height="40" as="geometry" />
        </mxCell>
        <mxCell id="fTsqoePo69IkHv7tenj3-27" value="init_kmem_cache_node" style="rounded=1;whiteSpace=wrap;html=1;" parent="1" vertex="1">
          <mxGeometry x="840" y="1120" width="160" height="40" as="geometry" />
        </mxCell>
        <mxCell id="fTsqoePo69IkHv7tenj3-31" value="s-&amp;gt;cpu_slab = __alloc_percpu()" style="rounded=1;whiteSpace=wrap;html=1;" parent="1" vertex="1">
          <mxGeometry x="720" y="1240" width="200" height="40" as="geometry" />
        </mxCell>
        <mxCell id="fTsqoePo69IkHv7tenj3-32" value="init_kmem_cache_cpus" style="rounded=1;whiteSpace=wrap;html=1;" parent="1" vertex="1">
          <mxGeometry x="720" y="1300" width="200" height="40" as="geometry" />
        </mxCell>
        <mxCell id="fTsqoePo69IkHv7tenj3-35" style="edgeStyle=orthogonalEdgeStyle;rounded=1;orthogonalLoop=1;jettySize=auto;html=1;exitX=0.25;exitY=1;exitDx=0;exitDy=0;entryX=0;entryY=0.5;entryDx=0;entryDy=0;" parent="1" source="fTsqoePo69IkHv7tenj3-36" target="fTsqoePo69IkHv7tenj3-37" edge="1">
          <mxGeometry relative="1" as="geometry" />
        </mxCell>
        <mxCell id="fTsqoePo69IkHv7tenj3-36" value="kmem_cache_alloc" style="rounded=1;whiteSpace=wrap;html=1;" parent="1" vertex="1">
          <mxGeometry x="40" y="1760" width="140" height="40" as="geometry" />
        </mxCell>
        <mxCell id="fTsqoePo69IkHv7tenj3-39" style="edgeStyle=orthogonalEdgeStyle;rounded=1;orthogonalLoop=1;jettySize=auto;html=1;exitX=0.25;exitY=1;exitDx=0;exitDy=0;entryX=0;entryY=0.5;entryDx=0;entryDy=0;" parent="1" source="fTsqoePo69IkHv7tenj3-37" target="fTsqoePo69IkHv7tenj3-38" edge="1">
          <mxGeometry relative="1" as="geometry" />
        </mxCell>
        <mxCell id="fTsqoePo69IkHv7tenj3-37" value="slab_alloc" style="rounded=1;whiteSpace=wrap;html=1;" parent="1" vertex="1">
          <mxGeometry x="110" y="1820" width="130" height="40" as="geometry" />
        </mxCell>
        <mxCell id="nb7vk2UFu0yFhdqlse9p-10" style="edgeStyle=orthogonalEdgeStyle;shape=connector;rounded=1;orthogonalLoop=1;jettySize=auto;html=1;exitX=0.25;exitY=1;exitDx=0;exitDy=0;entryX=0;entryY=0.5;entryDx=0;entryDy=0;labelBackgroundColor=default;strokeColor=default;align=center;verticalAlign=middle;fontFamily=Helvetica;fontSize=11;fontColor=default;endArrow=classic;" parent="1" source="fTsqoePo69IkHv7tenj3-38" target="nb7vk2UFu0yFhdqlse9p-9" edge="1">
          <mxGeometry relative="1" as="geometry" />
        </mxCell>
        <mxCell id="nb7vk2UFu0yFhdqlse9p-12" style="edgeStyle=orthogonalEdgeStyle;shape=connector;rounded=1;orthogonalLoop=1;jettySize=auto;html=1;exitX=0.25;exitY=1;exitDx=0;exitDy=0;entryX=0;entryY=0.5;entryDx=0;entryDy=0;labelBackgroundColor=default;strokeColor=default;align=center;verticalAlign=middle;fontFamily=Helvetica;fontSize=11;fontColor=default;endArrow=classic;" parent="1" source="fTsqoePo69IkHv7tenj3-38" target="nb7vk2UFu0yFhdqlse9p-11" edge="1">
          <mxGeometry relative="1" as="geometry" />
        </mxCell>
        <mxCell id="nb7vk2UFu0yFhdqlse9p-14" style="edgeStyle=orthogonalEdgeStyle;shape=connector;rounded=1;orthogonalLoop=1;jettySize=auto;html=1;exitX=0.25;exitY=1;exitDx=0;exitDy=0;entryX=0;entryY=0.5;entryDx=0;entryDy=0;labelBackgroundColor=default;strokeColor=default;align=center;verticalAlign=middle;fontFamily=Helvetica;fontSize=11;fontColor=default;endArrow=classic;" parent="1" source="fTsqoePo69IkHv7tenj3-38" target="nb7vk2UFu0yFhdqlse9p-13" edge="1">
          <mxGeometry relative="1" as="geometry" />
        </mxCell>
        <mxCell id="fTsqoePo69IkHv7tenj3-38" value="slab_alloc_node" style="rounded=1;whiteSpace=wrap;html=1;" parent="1" vertex="1">
          <mxGeometry x="320" y="1640" width="130" height="40" as="geometry" />
        </mxCell>
        <mxCell id="8wZrcc3XsJZtxt9ual1O-4" style="edgeStyle=orthogonalEdgeStyle;shape=connector;rounded=1;orthogonalLoop=1;jettySize=auto;html=1;exitX=1;exitY=0.5;exitDx=0;exitDy=0;entryX=0;entryY=0.5;entryDx=0;entryDy=0;labelBackgroundColor=default;strokeColor=default;align=center;verticalAlign=middle;fontFamily=Helvetica;fontSize=11;fontColor=default;endArrow=classic;dashed=1;" parent="1" source="8wZrcc3XsJZtxt9ual1O-2" target="fTsqoePo69IkHv7tenj3-10" edge="1">
          <mxGeometry relative="1" as="geometry" />
        </mxCell>
        <mxCell id="8wZrcc3XsJZtxt9ual1O-2" value="__kmem_cache_create" style="rounded=1;whiteSpace=wrap;html=1;" parent="1" vertex="1">
          <mxGeometry x="220" y="1000" width="160" height="40" as="geometry" />
        </mxCell>
        <mxCell id="nb7vk2UFu0yFhdqlse9p-7" style="edgeStyle=orthogonalEdgeStyle;shape=connector;rounded=1;orthogonalLoop=1;jettySize=auto;html=1;exitX=1;exitY=0.5;exitDx=0;exitDy=0;entryX=0;entryY=0.5;entryDx=0;entryDy=0;labelBackgroundColor=default;strokeColor=default;align=center;verticalAlign=middle;fontFamily=Helvetica;fontSize=11;fontColor=default;endArrow=classic;" parent="1" source="nb7vk2UFu0yFhdqlse9p-4" target="nb7vk2UFu0yFhdqlse9p-6" edge="1">
          <mxGeometry relative="1" as="geometry" />
        </mxCell>
        <mxCell id="nb7vk2UFu0yFhdqlse9p-4" value="slab_state == &lt;br&gt;DOWN" style="rhombus;whiteSpace=wrap;html=1;fontFamily=Helvetica;fontSize=11;fontColor=default;" parent="1" vertex="1">
          <mxGeometry x="840" y="990" width="100" height="50" as="geometry" />
        </mxCell>
        <mxCell id="nb7vk2UFu0yFhdqlse9p-6" value="early_kmem_cache_node_alloc" style="rounded=1;whiteSpace=wrap;html=1;" parent="1" vertex="1">
          <mxGeometry x="980" y="995" width="180" height="40" as="geometry" />
        </mxCell>
        <mxCell id="nb7vk2UFu0yFhdqlse9p-9" value="slab_pre_alloc_hook" style="rounded=1;whiteSpace=wrap;html=1;" parent="1" vertex="1">
          <mxGeometry x="390" y="1700" width="130" height="40" as="geometry" />
        </mxCell>
        <mxCell id="nb7vk2UFu0yFhdqlse9p-11" value="slab_post_alloc_hook" style="rounded=1;whiteSpace=wrap;html=1;" parent="1" vertex="1">
          <mxGeometry x="390" y="1950" width="130" height="40" as="geometry" />
        </mxCell>
        <mxCell id="nb7vk2UFu0yFhdqlse9p-18" style="edgeStyle=orthogonalEdgeStyle;shape=connector;rounded=1;orthogonalLoop=1;jettySize=auto;html=1;exitX=0.25;exitY=1;exitDx=0;exitDy=0;entryX=0;entryY=0.5;entryDx=0;entryDy=0;labelBackgroundColor=default;strokeColor=default;align=center;verticalAlign=middle;fontFamily=Helvetica;fontSize=11;fontColor=default;endArrow=classic;" parent="1" source="nb7vk2UFu0yFhdqlse9p-13" target="nb7vk2UFu0yFhdqlse9p-15" edge="1">
          <mxGeometry relative="1" as="geometry" />
        </mxCell>
        <mxCell id="nb7vk2UFu0yFhdqlse9p-13" value="object = c-&amp;gt;freelist;" style="rounded=1;whiteSpace=wrap;html=1;" parent="1" vertex="1">
          <mxGeometry x="390" y="1760" width="130" height="40" as="geometry" />
        </mxCell>
        <mxCell id="nb7vk2UFu0yFhdqlse9p-20" style="edgeStyle=orthogonalEdgeStyle;shape=connector;rounded=1;orthogonalLoop=1;jettySize=auto;html=1;exitX=0.5;exitY=1;exitDx=0;exitDy=0;entryX=0;entryY=0.5;entryDx=0;entryDy=0;labelBackgroundColor=default;strokeColor=default;align=center;verticalAlign=middle;fontFamily=Helvetica;fontSize=11;fontColor=default;endArrow=classic;" parent="1" source="nb7vk2UFu0yFhdqlse9p-15" target="nb7vk2UFu0yFhdqlse9p-19" edge="1">
          <mxGeometry relative="1" as="geometry" />
        </mxCell>
        <mxCell id="nb7vk2UFu0yFhdqlse9p-90" style="edgeStyle=orthogonalEdgeStyle;shape=connector;rounded=1;orthogonalLoop=1;jettySize=auto;html=1;exitX=1;exitY=0.5;exitDx=0;exitDy=0;entryX=0;entryY=0.5;entryDx=0;entryDy=0;labelBackgroundColor=default;strokeColor=default;align=center;verticalAlign=middle;fontFamily=Helvetica;fontSize=11;fontColor=default;endArrow=classic;" parent="1" source="nb7vk2UFu0yFhdqlse9p-15" target="nb7vk2UFu0yFhdqlse9p-89" edge="1">
          <mxGeometry relative="1" as="geometry" />
        </mxCell>
        <mxCell id="nb7vk2UFu0yFhdqlse9p-15" value="!object || !page" style="rhombus;whiteSpace=wrap;html=1;fontFamily=Helvetica;fontSize=11;fontColor=default;" parent="1" vertex="1">
          <mxGeometry x="455" y="1820" width="100" height="40" as="geometry" />
        </mxCell>
        <mxCell id="nb7vk2UFu0yFhdqlse9p-25" style="edgeStyle=orthogonalEdgeStyle;shape=connector;rounded=1;orthogonalLoop=1;jettySize=auto;html=1;exitX=0.25;exitY=1;exitDx=0;exitDy=0;entryX=0;entryY=0.5;entryDx=0;entryDy=0;labelBackgroundColor=default;strokeColor=default;align=center;verticalAlign=middle;fontFamily=Helvetica;fontSize=11;fontColor=default;endArrow=classic;" parent="1" source="nb7vk2UFu0yFhdqlse9p-16" target="nb7vk2UFu0yFhdqlse9p-22" edge="1">
          <mxGeometry relative="1" as="geometry" />
        </mxCell>
        <mxCell id="nb7vk2UFu0yFhdqlse9p-26" style="edgeStyle=orthogonalEdgeStyle;shape=connector;rounded=1;orthogonalLoop=1;jettySize=auto;html=1;exitX=0.25;exitY=1;exitDx=0;exitDy=0;entryX=0;entryY=0.5;entryDx=0;entryDy=0;labelBackgroundColor=default;strokeColor=default;align=center;verticalAlign=middle;fontFamily=Helvetica;fontSize=11;fontColor=default;endArrow=classic;" parent="1" source="nb7vk2UFu0yFhdqlse9p-16" target="nb7vk2UFu0yFhdqlse9p-24" edge="1">
          <mxGeometry relative="1" as="geometry" />
        </mxCell>
        <mxCell id="nb7vk2UFu0yFhdqlse9p-27" style="edgeStyle=orthogonalEdgeStyle;shape=connector;rounded=1;orthogonalLoop=1;jettySize=auto;html=1;exitX=0.25;exitY=1;exitDx=0;exitDy=0;entryX=0;entryY=0.5;entryDx=0;entryDy=0;labelBackgroundColor=default;strokeColor=default;align=center;verticalAlign=middle;fontFamily=Helvetica;fontSize=11;fontColor=default;endArrow=classic;" parent="1" source="nb7vk2UFu0yFhdqlse9p-16" target="nb7vk2UFu0yFhdqlse9p-23" edge="1">
          <mxGeometry relative="1" as="geometry" />
        </mxCell>
        <mxCell id="nb7vk2UFu0yFhdqlse9p-16" value="__slab_alloc" style="rounded=1;whiteSpace=wrap;html=1;" parent="1" vertex="1">
          <mxGeometry x="40" y="2160" width="130" height="40" as="geometry" />
        </mxCell>
        <mxCell id="nb7vk2UFu0yFhdqlse9p-19" value="get_freepointer_safe" style="rounded=1;whiteSpace=wrap;html=1;" parent="1" vertex="1">
          <mxGeometry x="535" y="1890" width="130" height="40" as="geometry" />
        </mxCell>
        <mxCell id="nb7vk2UFu0yFhdqlse9p-21" value="优先从Per-CPU cache中&lt;br&gt;获取空闲对象" style="text;html=1;align=center;verticalAlign=middle;resizable=0;points=[];autosize=1;strokeColor=none;fillColor=none;fontSize=11;fontFamily=Helvetica;fontColor=default;" parent="1" vertex="1">
          <mxGeometry x="520" y="1760" width="140" height="40" as="geometry" />
        </mxCell>
        <mxCell id="nb7vk2UFu0yFhdqlse9p-22" value="local_irq_save" style="rounded=1;whiteSpace=wrap;html=1;" parent="1" vertex="1">
          <mxGeometry x="110" y="2220" width="130" height="40" as="geometry" />
        </mxCell>
        <mxCell id="nb7vk2UFu0yFhdqlse9p-23" value="local_irq_restore" style="rounded=1;whiteSpace=wrap;html=1;" parent="1" vertex="1">
          <mxGeometry x="110" y="2660" width="130" height="40" as="geometry" />
        </mxCell>
        <mxCell id="nb7vk2UFu0yFhdqlse9p-31" style="edgeStyle=orthogonalEdgeStyle;shape=connector;rounded=1;orthogonalLoop=1;jettySize=auto;html=1;exitX=0.25;exitY=1;exitDx=0;exitDy=0;entryX=0;entryY=0.5;entryDx=0;entryDy=0;labelBackgroundColor=default;strokeColor=default;align=center;verticalAlign=middle;fontFamily=Helvetica;fontSize=11;fontColor=default;endArrow=classic;" parent="1" source="nb7vk2UFu0yFhdqlse9p-24" target="nb7vk2UFu0yFhdqlse9p-28" edge="1">
          <mxGeometry relative="1" as="geometry" />
        </mxCell>
        <mxCell id="nb7vk2UFu0yFhdqlse9p-32" style="edgeStyle=orthogonalEdgeStyle;shape=connector;rounded=1;orthogonalLoop=1;jettySize=auto;html=1;exitX=0.25;exitY=1;exitDx=0;exitDy=0;entryX=0;entryY=0.5;entryDx=0;entryDy=0;labelBackgroundColor=default;strokeColor=default;align=center;verticalAlign=middle;fontFamily=Helvetica;fontSize=11;fontColor=default;endArrow=classic;" parent="1" source="nb7vk2UFu0yFhdqlse9p-24" target="nb7vk2UFu0yFhdqlse9p-29" edge="1">
          <mxGeometry relative="1" as="geometry" />
        </mxCell>
        <mxCell id="nb7vk2UFu0yFhdqlse9p-33" style="edgeStyle=orthogonalEdgeStyle;shape=connector;rounded=1;orthogonalLoop=1;jettySize=auto;html=1;exitX=0.25;exitY=1;exitDx=0;exitDy=0;entryX=0;entryY=0.5;entryDx=0;entryDy=0;labelBackgroundColor=default;strokeColor=default;align=center;verticalAlign=middle;fontFamily=Helvetica;fontSize=11;fontColor=default;endArrow=classic;" parent="1" source="nb7vk2UFu0yFhdqlse9p-24" target="nb7vk2UFu0yFhdqlse9p-30" edge="1">
          <mxGeometry relative="1" as="geometry" />
        </mxCell>
        <mxCell id="nb7vk2UFu0yFhdqlse9p-24" value="___slab_alloc" style="rounded=1;whiteSpace=wrap;html=1;" parent="1" vertex="1">
          <mxGeometry x="110" y="2280" width="130" height="40" as="geometry" />
        </mxCell>
        <mxCell id="nb7vk2UFu0yFhdqlse9p-28" value="get_freelist" style="rounded=1;whiteSpace=wrap;html=1;" parent="1" vertex="1">
          <mxGeometry x="180" y="2340" width="130" height="40" as="geometry" />
        </mxCell>
        <mxCell id="nb7vk2UFu0yFhdqlse9p-36" style="edgeStyle=orthogonalEdgeStyle;shape=connector;rounded=1;orthogonalLoop=1;jettySize=auto;html=1;exitX=0.25;exitY=1;exitDx=0;exitDy=0;entryX=0;entryY=0.5;entryDx=0;entryDy=0;labelBackgroundColor=default;strokeColor=default;align=center;verticalAlign=middle;fontFamily=Helvetica;fontSize=11;fontColor=default;endArrow=classic;" parent="1" source="nb7vk2UFu0yFhdqlse9p-29" target="nb7vk2UFu0yFhdqlse9p-34" edge="1">
          <mxGeometry relative="1" as="geometry" />
        </mxCell>
        <mxCell id="nb7vk2UFu0yFhdqlse9p-37" style="edgeStyle=orthogonalEdgeStyle;shape=connector;rounded=1;orthogonalLoop=1;jettySize=auto;html=1;exitX=0.25;exitY=1;exitDx=0;exitDy=0;entryX=0;entryY=0.5;entryDx=0;entryDy=0;labelBackgroundColor=default;strokeColor=default;align=center;verticalAlign=middle;fontFamily=Helvetica;fontSize=11;fontColor=default;endArrow=classic;" parent="1" source="nb7vk2UFu0yFhdqlse9p-29" target="nb7vk2UFu0yFhdqlse9p-35" edge="1">
          <mxGeometry relative="1" as="geometry" />
        </mxCell>
        <mxCell id="nb7vk2UFu0yFhdqlse9p-29" value="new_slab_objects" style="rounded=1;whiteSpace=wrap;html=1;" parent="1" vertex="1">
          <mxGeometry x="180" y="2400" width="130" height="40" as="geometry" />
        </mxCell>
        <mxCell id="nb7vk2UFu0yFhdqlse9p-30" value="deactivate_slab" style="rounded=1;whiteSpace=wrap;html=1;" parent="1" vertex="1">
          <mxGeometry x="180" y="2600" width="130" height="40" as="geometry" />
        </mxCell>
        <mxCell id="nb7vk2UFu0yFhdqlse9p-34" value="get_partial" style="rounded=1;whiteSpace=wrap;html=1;" parent="1" vertex="1">
          <mxGeometry x="240" y="2460" width="130" height="40" as="geometry" />
        </mxCell>
        <mxCell id="nb7vk2UFu0yFhdqlse9p-39" style="edgeStyle=orthogonalEdgeStyle;shape=connector;rounded=1;orthogonalLoop=1;jettySize=auto;html=1;exitX=0.25;exitY=1;exitDx=0;exitDy=0;entryX=0;entryY=0.5;entryDx=0;entryDy=0;labelBackgroundColor=default;strokeColor=default;align=center;verticalAlign=middle;fontFamily=Helvetica;fontSize=11;fontColor=default;endArrow=classic;" parent="1" source="nb7vk2UFu0yFhdqlse9p-35" target="nb7vk2UFu0yFhdqlse9p-38" edge="1">
          <mxGeometry relative="1" as="geometry" />
        </mxCell>
        <mxCell id="nb7vk2UFu0yFhdqlse9p-35" value="new_slab" style="rounded=1;whiteSpace=wrap;html=1;" parent="1" vertex="1">
          <mxGeometry x="240" y="2520" width="130" height="40" as="geometry" />
        </mxCell>
        <mxCell id="nb7vk2UFu0yFhdqlse9p-43" style="edgeStyle=orthogonalEdgeStyle;shape=connector;rounded=1;orthogonalLoop=1;jettySize=auto;html=1;exitX=0.25;exitY=1;exitDx=0;exitDy=0;entryX=0;entryY=0.5;entryDx=0;entryDy=0;labelBackgroundColor=default;strokeColor=default;align=center;verticalAlign=middle;fontFamily=Helvetica;fontSize=11;fontColor=default;endArrow=classic;" parent="1" source="nb7vk2UFu0yFhdqlse9p-38" target="nb7vk2UFu0yFhdqlse9p-40" edge="1">
          <mxGeometry relative="1" as="geometry" />
        </mxCell>
        <mxCell id="nb7vk2UFu0yFhdqlse9p-44" style="edgeStyle=orthogonalEdgeStyle;shape=connector;rounded=1;orthogonalLoop=1;jettySize=auto;html=1;exitX=0.25;exitY=1;exitDx=0;exitDy=0;entryX=0;entryY=0.5;entryDx=0;entryDy=0;labelBackgroundColor=default;strokeColor=default;align=center;verticalAlign=middle;fontFamily=Helvetica;fontSize=11;fontColor=default;endArrow=classic;" parent="1" source="nb7vk2UFu0yFhdqlse9p-38" target="nb7vk2UFu0yFhdqlse9p-41" edge="1">
          <mxGeometry relative="1" as="geometry" />
        </mxCell>
        <mxCell id="nb7vk2UFu0yFhdqlse9p-45" style="edgeStyle=orthogonalEdgeStyle;shape=connector;rounded=1;orthogonalLoop=1;jettySize=auto;html=1;exitX=0.25;exitY=1;exitDx=0;exitDy=0;entryX=0;entryY=0.5;entryDx=0;entryDy=0;labelBackgroundColor=default;strokeColor=default;align=center;verticalAlign=middle;fontFamily=Helvetica;fontSize=11;fontColor=default;endArrow=classic;" parent="1" source="nb7vk2UFu0yFhdqlse9p-38" target="nb7vk2UFu0yFhdqlse9p-42" edge="1">
          <mxGeometry relative="1" as="geometry" />
        </mxCell>
        <mxCell id="nb7vk2UFu0yFhdqlse9p-38" value="allocate_slab" style="rounded=1;whiteSpace=wrap;html=1;" parent="1" vertex="1">
          <mxGeometry x="490" y="2160" width="130" height="40" as="geometry" />
        </mxCell>
        <mxCell id="nb7vk2UFu0yFhdqlse9p-40" value="alloc_slab_page" style="rounded=1;whiteSpace=wrap;html=1;" parent="1" vertex="1">
          <mxGeometry x="550" y="2220" width="130" height="40" as="geometry" />
        </mxCell>
        <mxCell id="nb7vk2UFu0yFhdqlse9p-41" value="shuffle = shuffle_freelist" style="rounded=1;whiteSpace=wrap;html=1;" parent="1" vertex="1">
          <mxGeometry x="550" y="2280" width="130" height="40" as="geometry" />
        </mxCell>
        <mxCell id="nb7vk2UFu0yFhdqlse9p-49" style="edgeStyle=orthogonalEdgeStyle;shape=connector;rounded=1;orthogonalLoop=1;jettySize=auto;html=1;exitX=0.5;exitY=1;exitDx=0;exitDy=0;entryX=0;entryY=0.5;entryDx=0;entryDy=0;labelBackgroundColor=default;strokeColor=default;align=center;verticalAlign=middle;fontFamily=Helvetica;fontSize=11;fontColor=default;endArrow=classic;" parent="1" source="nb7vk2UFu0yFhdqlse9p-42" target="nb7vk2UFu0yFhdqlse9p-46" edge="1">
          <mxGeometry relative="1" as="geometry" />
        </mxCell>
        <mxCell id="nb7vk2UFu0yFhdqlse9p-50" style="edgeStyle=orthogonalEdgeStyle;shape=connector;rounded=1;orthogonalLoop=1;jettySize=auto;html=1;exitX=0.5;exitY=1;exitDx=0;exitDy=0;entryX=0;entryY=0.5;entryDx=0;entryDy=0;labelBackgroundColor=default;strokeColor=default;align=center;verticalAlign=middle;fontFamily=Helvetica;fontSize=11;fontColor=default;endArrow=classic;" parent="1" source="nb7vk2UFu0yFhdqlse9p-42" target="nb7vk2UFu0yFhdqlse9p-47" edge="1">
          <mxGeometry relative="1" as="geometry" />
        </mxCell>
        <mxCell id="nb7vk2UFu0yFhdqlse9p-51" style="edgeStyle=orthogonalEdgeStyle;shape=connector;rounded=1;orthogonalLoop=1;jettySize=auto;html=1;exitX=0.5;exitY=1;exitDx=0;exitDy=0;entryX=0;entryY=0.5;entryDx=0;entryDy=0;labelBackgroundColor=default;strokeColor=default;align=center;verticalAlign=middle;fontFamily=Helvetica;fontSize=11;fontColor=default;endArrow=classic;" parent="1" source="nb7vk2UFu0yFhdqlse9p-42" target="nb7vk2UFu0yFhdqlse9p-48" edge="1">
          <mxGeometry relative="1" as="geometry" />
        </mxCell>
        <mxCell id="nb7vk2UFu0yFhdqlse9p-55" style="edgeStyle=orthogonalEdgeStyle;shape=connector;rounded=1;orthogonalLoop=1;jettySize=auto;html=1;exitX=0.5;exitY=1;exitDx=0;exitDy=0;entryX=0;entryY=0.5;entryDx=0;entryDy=0;labelBackgroundColor=default;strokeColor=default;align=center;verticalAlign=middle;fontFamily=Helvetica;fontSize=11;fontColor=default;endArrow=classic;" parent="1" source="nb7vk2UFu0yFhdqlse9p-42" target="nb7vk2UFu0yFhdqlse9p-52" edge="1">
          <mxGeometry relative="1" as="geometry" />
        </mxCell>
        <mxCell id="nb7vk2UFu0yFhdqlse9p-42" value="!shuffle" style="rhombus;whiteSpace=wrap;html=1;fontFamily=Helvetica;fontSize=11;fontColor=default;" parent="1" vertex="1">
          <mxGeometry x="550" y="2340" width="80" height="40" as="geometry" />
        </mxCell>
        <mxCell id="nb7vk2UFu0yFhdqlse9p-46" value="start = fixup_red_left" style="rounded=1;whiteSpace=wrap;html=1;" parent="1" vertex="1">
          <mxGeometry x="620" y="2400" width="130" height="40" as="geometry" />
        </mxCell>
        <mxCell id="nb7vk2UFu0yFhdqlse9p-47" value="start = setup_object" style="rounded=1;whiteSpace=wrap;html=1;" parent="1" vertex="1">
          <mxGeometry x="620" y="2460" width="130" height="40" as="geometry" />
        </mxCell>
        <mxCell id="nb7vk2UFu0yFhdqlse9p-48" value="set_freepointer" style="rounded=1;whiteSpace=wrap;html=1;" parent="1" vertex="1">
          <mxGeometry x="630" y="2690" width="130" height="40" as="geometry" />
        </mxCell>
        <mxCell id="nb7vk2UFu0yFhdqlse9p-54" style="edgeStyle=orthogonalEdgeStyle;shape=connector;rounded=1;orthogonalLoop=1;jettySize=auto;html=1;exitX=0.25;exitY=1;exitDx=0;exitDy=0;entryX=0;entryY=0.5;entryDx=0;entryDy=0;labelBackgroundColor=default;strokeColor=default;align=center;verticalAlign=middle;fontFamily=Helvetica;fontSize=11;fontColor=default;endArrow=classic;" parent="1" source="nb7vk2UFu0yFhdqlse9p-52" target="nb7vk2UFu0yFhdqlse9p-53" edge="1">
          <mxGeometry relative="1" as="geometry" />
        </mxCell>
        <mxCell id="nb7vk2UFu0yFhdqlse9p-52" value="page-&amp;gt;freelist = start;" style="rounded=1;whiteSpace=wrap;html=1;" parent="1" vertex="1">
          <mxGeometry x="620" y="2520" width="130" height="40" as="geometry" />
        </mxCell>
        <mxCell id="nb7vk2UFu0yFhdqlse9p-57" style="edgeStyle=orthogonalEdgeStyle;shape=connector;rounded=1;orthogonalLoop=1;jettySize=auto;html=1;exitX=0.25;exitY=1;exitDx=0;exitDy=0;entryX=0;entryY=0.5;entryDx=0;entryDy=0;labelBackgroundColor=default;strokeColor=default;align=center;verticalAlign=middle;fontFamily=Helvetica;fontSize=11;fontColor=default;endArrow=classic;" parent="1" source="nb7vk2UFu0yFhdqlse9p-53" target="nb7vk2UFu0yFhdqlse9p-56" edge="1">
          <mxGeometry relative="1" as="geometry" />
        </mxCell>
        <mxCell id="nb7vk2UFu0yFhdqlse9p-53" value="遍历page上的所有object" style="rounded=0;whiteSpace=wrap;html=1;" parent="1" vertex="1">
          <mxGeometry x="680" y="2580" width="150" height="30" as="geometry" />
        </mxCell>
        <mxCell id="nb7vk2UFu0yFhdqlse9p-56" value="setup_object" style="rounded=1;whiteSpace=wrap;html=1;" parent="1" vertex="1">
          <mxGeometry x="750" y="2630" width="130" height="40" as="geometry" />
        </mxCell>
        <mxCell id="nb7vk2UFu0yFhdqlse9p-58" value="" style="rounded=1;whiteSpace=wrap;html=1;fontFamily=Helvetica;fontSize=11;fontColor=default;" parent="1" vertex="1">
          <mxGeometry x="1382" y="50" width="159" height="30" as="geometry" />
        </mxCell>
        <mxCell id="nb7vk2UFu0yFhdqlse9p-59" value="内置式对象" style="text;html=1;align=center;verticalAlign=middle;resizable=0;points=[];autosize=1;strokeColor=none;fillColor=none;fontSize=11;fontFamily=Helvetica;fontColor=default;" parent="1" vertex="1">
          <mxGeometry x="1241" y="8" width="80" height="30" as="geometry" />
        </mxCell>
        <mxCell id="nb7vk2UFu0yFhdqlse9p-60" value="void *" style="rounded=1;whiteSpace=wrap;html=1;fontFamily=Helvetica;fontSize=11;fontColor=default;" parent="1" vertex="1">
          <mxGeometry x="1382" y="50" width="39" height="30" as="geometry" />
        </mxCell>
        <mxCell id="nb7vk2UFu0yFhdqlse9p-62" value="" style="rounded=1;whiteSpace=wrap;html=1;fontFamily=Helvetica;fontSize=11;fontColor=default;" parent="1" vertex="1">
          <mxGeometry x="1541" y="50" width="39" height="30" as="geometry" />
        </mxCell>
        <mxCell id="nb7vk2UFu0yFhdqlse9p-63" value="" style="rounded=1;whiteSpace=wrap;html=1;fontFamily=Helvetica;fontSize=11;fontColor=default;" parent="1" vertex="1">
          <mxGeometry x="1580" y="50" width="41" height="30" as="geometry" />
        </mxCell>
        <mxCell id="nb7vk2UFu0yFhdqlse9p-64" value="" style="shape=curlyBracket;whiteSpace=wrap;html=1;rounded=1;labelPosition=left;verticalLabelPosition=middle;align=right;verticalAlign=middle;fontFamily=Helvetica;fontSize=11;fontColor=default;direction=north;" parent="1" vertex="1">
          <mxGeometry x="1382" y="80" width="159" height="20" as="geometry" />
        </mxCell>
        <mxCell id="nb7vk2UFu0yFhdqlse9p-65" value="object" style="text;html=1;align=center;verticalAlign=middle;resizable=0;points=[];autosize=1;strokeColor=none;fillColor=none;fontSize=11;fontFamily=Helvetica;fontColor=default;" parent="1" vertex="1">
          <mxGeometry x="1436.5" y="90" width="50" height="30" as="geometry" />
        </mxCell>
        <mxCell id="nb7vk2UFu0yFhdqlse9p-66" value="" style="shape=curlyBracket;whiteSpace=wrap;html=1;rounded=1;labelPosition=left;verticalLabelPosition=middle;align=right;verticalAlign=middle;fontFamily=Helvetica;fontSize=11;fontColor=default;direction=north;" parent="1" vertex="1">
          <mxGeometry x="1541" y="80" width="40" height="20" as="geometry" />
        </mxCell>
        <mxCell id="nb7vk2UFu0yFhdqlse9p-67" value="word&lt;br&gt;align" style="text;html=1;align=center;verticalAlign=middle;resizable=0;points=[];autosize=1;strokeColor=none;fillColor=none;fontSize=11;fontFamily=Helvetica;fontColor=default;" parent="1" vertex="1">
          <mxGeometry x="1536" y="90" width="50" height="40" as="geometry" />
        </mxCell>
        <mxCell id="nb7vk2UFu0yFhdqlse9p-68" value="" style="shape=curlyBracket;whiteSpace=wrap;html=1;rounded=1;labelPosition=left;verticalLabelPosition=middle;align=right;verticalAlign=middle;fontFamily=Helvetica;fontSize=11;fontColor=default;direction=north;" parent="1" vertex="1">
          <mxGeometry x="1581" y="80" width="40" height="20" as="geometry" />
        </mxCell>
        <mxCell id="nb7vk2UFu0yFhdqlse9p-69" value="object&lt;br&gt;align" style="text;html=1;align=center;verticalAlign=middle;resizable=0;points=[];autosize=1;strokeColor=none;fillColor=none;fontSize=11;fontFamily=Helvetica;fontColor=default;" parent="1" vertex="1">
          <mxGeometry x="1576" y="90" width="50" height="40" as="geometry" />
        </mxCell>
        <mxCell id="nb7vk2UFu0yFhdqlse9p-71" style="edgeStyle=orthogonalEdgeStyle;shape=connector;rounded=1;orthogonalLoop=1;jettySize=auto;html=1;entryX=0.5;entryY=0;entryDx=0;entryDy=0;labelBackgroundColor=default;strokeColor=default;align=center;verticalAlign=middle;fontFamily=Helvetica;fontSize=11;fontColor=default;endArrow=classic;" parent="1" source="nb7vk2UFu0yFhdqlse9p-70" target="nb7vk2UFu0yFhdqlse9p-60" edge="1">
          <mxGeometry relative="1" as="geometry" />
        </mxCell>
        <mxCell id="nb7vk2UFu0yFhdqlse9p-70" value="空闲链表指针" style="text;html=1;align=center;verticalAlign=middle;resizable=0;points=[];autosize=1;strokeColor=none;fillColor=none;fontSize=11;fontFamily=Helvetica;fontColor=default;" parent="1" vertex="1">
          <mxGeometry x="1356.5" width="90" height="30" as="geometry" />
        </mxCell>
        <mxCell id="nb7vk2UFu0yFhdqlse9p-72" value="" style="shape=curlyBracket;whiteSpace=wrap;html=1;rounded=1;labelPosition=left;verticalLabelPosition=middle;align=right;verticalAlign=middle;fontFamily=Helvetica;fontSize=11;fontColor=default;direction=north;" parent="1" vertex="1">
          <mxGeometry x="1382" y="120" width="239" height="20" as="geometry" />
        </mxCell>
        <mxCell id="nb7vk2UFu0yFhdqlse9p-73" value="slab object" style="text;html=1;align=center;verticalAlign=middle;resizable=0;points=[];autosize=1;strokeColor=none;fillColor=none;fontSize=11;fontFamily=Helvetica;fontColor=default;" parent="1" vertex="1">
          <mxGeometry x="1461" y="130" width="80" height="30" as="geometry" />
        </mxCell>
        <mxCell id="nb7vk2UFu0yFhdqlse9p-74" value="" style="rounded=1;whiteSpace=wrap;html=1;fontFamily=Helvetica;fontSize=11;fontColor=default;" parent="1" vertex="1">
          <mxGeometry x="1361" y="286" width="159" height="30" as="geometry" />
        </mxCell>
        <mxCell id="nb7vk2UFu0yFhdqlse9p-75" value="外置式对象" style="text;html=1;align=center;verticalAlign=middle;resizable=0;points=[];autosize=1;strokeColor=none;fillColor=none;fontSize=11;fontFamily=Helvetica;fontColor=default;" parent="1" vertex="1">
          <mxGeometry x="1241" y="240" width="80" height="30" as="geometry" />
        </mxCell>
        <mxCell id="nb7vk2UFu0yFhdqlse9p-76" value="void *" style="rounded=1;whiteSpace=wrap;html=1;fontFamily=Helvetica;fontSize=11;fontColor=default;" parent="1" vertex="1">
          <mxGeometry x="1559" y="286" width="39" height="30" as="geometry" />
        </mxCell>
        <mxCell id="nb7vk2UFu0yFhdqlse9p-77" value="" style="rounded=1;whiteSpace=wrap;html=1;fontFamily=Helvetica;fontSize=11;fontColor=default;" parent="1" vertex="1">
          <mxGeometry x="1520" y="286" width="39" height="30" as="geometry" />
        </mxCell>
        <mxCell id="nb7vk2UFu0yFhdqlse9p-78" value="" style="rounded=1;whiteSpace=wrap;html=1;fontFamily=Helvetica;fontSize=11;fontColor=default;" parent="1" vertex="1">
          <mxGeometry x="1598" y="286" width="41" height="30" as="geometry" />
        </mxCell>
        <mxCell id="nb7vk2UFu0yFhdqlse9p-79" value="" style="shape=curlyBracket;whiteSpace=wrap;html=1;rounded=1;labelPosition=left;verticalLabelPosition=middle;align=right;verticalAlign=middle;fontFamily=Helvetica;fontSize=11;fontColor=default;direction=north;" parent="1" vertex="1">
          <mxGeometry x="1361" y="316" width="159" height="20" as="geometry" />
        </mxCell>
        <mxCell id="nb7vk2UFu0yFhdqlse9p-80" value="object" style="text;html=1;align=center;verticalAlign=middle;resizable=0;points=[];autosize=1;strokeColor=none;fillColor=none;fontSize=11;fontFamily=Helvetica;fontColor=default;" parent="1" vertex="1">
          <mxGeometry x="1415.5" y="326" width="50" height="30" as="geometry" />
        </mxCell>
        <mxCell id="nb7vk2UFu0yFhdqlse9p-81" value="" style="shape=curlyBracket;whiteSpace=wrap;html=1;rounded=1;labelPosition=left;verticalLabelPosition=middle;align=right;verticalAlign=middle;fontFamily=Helvetica;fontSize=11;fontColor=default;direction=north;" parent="1" vertex="1">
          <mxGeometry x="1520" y="316" width="40" height="20" as="geometry" />
        </mxCell>
        <mxCell id="nb7vk2UFu0yFhdqlse9p-82" value="word&lt;br&gt;align" style="text;html=1;align=center;verticalAlign=middle;resizable=0;points=[];autosize=1;strokeColor=none;fillColor=none;fontSize=11;fontFamily=Helvetica;fontColor=default;" parent="1" vertex="1">
          <mxGeometry x="1515" y="326" width="50" height="40" as="geometry" />
        </mxCell>
        <mxCell id="nb7vk2UFu0yFhdqlse9p-83" value="" style="shape=curlyBracket;whiteSpace=wrap;html=1;rounded=1;labelPosition=left;verticalLabelPosition=middle;align=right;verticalAlign=middle;fontFamily=Helvetica;fontSize=11;fontColor=default;direction=north;" parent="1" vertex="1">
          <mxGeometry x="1599" y="316" width="40" height="20" as="geometry" />
        </mxCell>
        <mxCell id="nb7vk2UFu0yFhdqlse9p-84" value="object&lt;br&gt;align" style="text;html=1;align=center;verticalAlign=middle;resizable=0;points=[];autosize=1;strokeColor=none;fillColor=none;fontSize=11;fontFamily=Helvetica;fontColor=default;" parent="1" vertex="1">
          <mxGeometry x="1594" y="326" width="50" height="40" as="geometry" />
        </mxCell>
        <mxCell id="nb7vk2UFu0yFhdqlse9p-85" style="edgeStyle=orthogonalEdgeStyle;shape=connector;rounded=1;orthogonalLoop=1;jettySize=auto;html=1;entryX=0.5;entryY=0;entryDx=0;entryDy=0;labelBackgroundColor=default;strokeColor=default;align=center;verticalAlign=middle;fontFamily=Helvetica;fontSize=11;fontColor=default;endArrow=classic;" parent="1" target="nb7vk2UFu0yFhdqlse9p-76" edge="1">
          <mxGeometry relative="1" as="geometry">
            <mxPoint x="1578.5" y="271" as="sourcePoint" />
          </mxGeometry>
        </mxCell>
        <mxCell id="nb7vk2UFu0yFhdqlse9p-86" value="空闲链表指针" style="text;html=1;align=center;verticalAlign=middle;resizable=0;points=[];autosize=1;strokeColor=none;fillColor=none;fontSize=11;fontFamily=Helvetica;fontColor=default;" parent="1" vertex="1">
          <mxGeometry x="1532.5" y="241" width="90" height="30" as="geometry" />
        </mxCell>
        <mxCell id="nb7vk2UFu0yFhdqlse9p-87" value="" style="shape=curlyBracket;whiteSpace=wrap;html=1;rounded=1;labelPosition=left;verticalLabelPosition=middle;align=right;verticalAlign=middle;fontFamily=Helvetica;fontSize=11;fontColor=default;direction=north;" parent="1" vertex="1">
          <mxGeometry x="1361" y="356" width="279" height="20" as="geometry" />
        </mxCell>
        <mxCell id="nb7vk2UFu0yFhdqlse9p-88" value="slab object" style="text;html=1;align=center;verticalAlign=middle;resizable=0;points=[];autosize=1;strokeColor=none;fillColor=none;fontSize=11;fontFamily=Helvetica;fontColor=default;" parent="1" vertex="1">
          <mxGeometry x="1440" y="366" width="80" height="30" as="geometry" />
        </mxCell>
        <mxCell id="nb7vk2UFu0yFhdqlse9p-89" value="__slab_alloc" style="rounded=1;whiteSpace=wrap;html=1;" parent="1" vertex="1">
          <mxGeometry x="600" y="1820" width="130" height="40" as="geometry" />
        </mxCell>
      </root>
    </mxGraphModel>
  </diagram>
  <diagram id="WB4DR_r-bg6jr05737Ex" name="第 3 页">
    <mxGraphModel dx="1220" dy="1018" grid="1" gridSize="10" guides="1" tooltips="1" connect="1" arrows="1" fold="1" page="1" pageScale="1" pageWidth="827" pageHeight="1169" math="0" shadow="0">
      <root>
        <mxCell id="0" />
        <mxCell id="1" parent="0" />
        <mxCell id="4fcKTC8SZaugYzXGXpfN-1" value="" style="rounded=0;whiteSpace=wrap;html=1;strokeWidth=0;" vertex="1" parent="1">
          <mxGeometry y="100" width="910" height="620" as="geometry" />
        </mxCell>
        <mxCell id="4fcKTC8SZaugYzXGXpfN-2" style="edgeStyle=orthogonalEdgeStyle;rounded=0;orthogonalLoop=1;jettySize=auto;html=1;exitX=0.5;exitY=1;exitDx=0;exitDy=0;entryX=0.5;entryY=0;entryDx=0;entryDy=0;" edge="1" parent="1" source="4fcKTC8SZaugYzXGXpfN-3" target="4fcKTC8SZaugYzXGXpfN-5">
          <mxGeometry relative="1" as="geometry" />
        </mxCell>
        <mxCell id="4fcKTC8SZaugYzXGXpfN-3" value="链表头&lt;br&gt;slab_caches" style="rounded=1;whiteSpace=wrap;html=1;absoluteArcSize=1;fillColor=#e1d5e7;strokeColor=#9673a6;" vertex="1" parent="1">
          <mxGeometry x="60" y="205" width="120" height="40" as="geometry" />
        </mxCell>
        <mxCell id="4fcKTC8SZaugYzXGXpfN-4" style="edgeStyle=orthogonalEdgeStyle;rounded=0;orthogonalLoop=1;jettySize=auto;html=1;exitX=0.5;exitY=1;exitDx=0;exitDy=0;entryX=0.5;entryY=0;entryDx=0;entryDy=0;" edge="1" parent="1" source="4fcKTC8SZaugYzXGXpfN-5" target="4fcKTC8SZaugYzXGXpfN-7">
          <mxGeometry relative="1" as="geometry" />
        </mxCell>
        <mxCell id="4fcKTC8SZaugYzXGXpfN-5" value="kmem_cache" style="rounded=0;whiteSpace=wrap;html=1;fillColor=#fff2cc;strokeColor=#d6b656;" vertex="1" parent="1">
          <mxGeometry x="70" y="275" width="100" height="30" as="geometry" />
        </mxCell>
        <mxCell id="4fcKTC8SZaugYzXGXpfN-6" style="edgeStyle=orthogonalEdgeStyle;rounded=0;orthogonalLoop=1;jettySize=auto;html=1;exitX=0.5;exitY=1;exitDx=0;exitDy=0;entryX=0.5;entryY=0;entryDx=0;entryDy=0;" edge="1" parent="1" source="4fcKTC8SZaugYzXGXpfN-7" target="4fcKTC8SZaugYzXGXpfN-9">
          <mxGeometry relative="1" as="geometry" />
        </mxCell>
        <mxCell id="4fcKTC8SZaugYzXGXpfN-7" value="kmem_cache" style="rounded=0;whiteSpace=wrap;html=1;fillColor=#fff2cc;strokeColor=#d6b656;" vertex="1" parent="1">
          <mxGeometry x="70" y="335" width="100" height="30" as="geometry" />
        </mxCell>
        <mxCell id="4fcKTC8SZaugYzXGXpfN-8" style="edgeStyle=orthogonalEdgeStyle;rounded=0;orthogonalLoop=1;jettySize=auto;html=1;exitX=0.5;exitY=1;exitDx=0;exitDy=0;entryX=0.5;entryY=0;entryDx=0;entryDy=0;" edge="1" parent="1" source="4fcKTC8SZaugYzXGXpfN-9" target="4fcKTC8SZaugYzXGXpfN-11">
          <mxGeometry relative="1" as="geometry" />
        </mxCell>
        <mxCell id="4fcKTC8SZaugYzXGXpfN-9" value="kmem_cache" style="rounded=0;whiteSpace=wrap;html=1;fillColor=#fff2cc;strokeColor=#d6b656;" vertex="1" parent="1">
          <mxGeometry x="70" y="395" width="100" height="30" as="geometry" />
        </mxCell>
        <mxCell id="4fcKTC8SZaugYzXGXpfN-10" style="edgeStyle=orthogonalEdgeStyle;rounded=0;orthogonalLoop=1;jettySize=auto;html=1;exitX=0.5;exitY=1;exitDx=0;exitDy=0;entryX=0.5;entryY=0;entryDx=0;entryDy=0;" edge="1" parent="1" source="4fcKTC8SZaugYzXGXpfN-11" target="4fcKTC8SZaugYzXGXpfN-12">
          <mxGeometry relative="1" as="geometry" />
        </mxCell>
        <mxCell id="4fcKTC8SZaugYzXGXpfN-11" value="kmem_cache" style="rounded=0;whiteSpace=wrap;html=1;fillColor=#fff2cc;strokeColor=#d6b656;" vertex="1" parent="1">
          <mxGeometry x="70" y="455" width="100" height="30" as="geometry" />
        </mxCell>
        <mxCell id="4fcKTC8SZaugYzXGXpfN-12" value="..." style="text;html=1;strokeColor=none;fillColor=none;align=center;verticalAlign=middle;whiteSpace=wrap;rounded=0;" vertex="1" parent="1">
          <mxGeometry x="70" y="515" width="100" height="30" as="geometry" />
        </mxCell>
        <mxCell id="4fcKTC8SZaugYzXGXpfN-13" value="" style="html=1;shadow=0;dashed=0;align=center;verticalAlign=middle;shape=mxgraph.arrows2.arrow;dy=0.67;dx=13;notch=0;" vertex="1" parent="1">
          <mxGeometry x="180" y="335" width="40" height="30" as="geometry" />
        </mxCell>
        <mxCell id="4fcKTC8SZaugYzXGXpfN-14" value="kmem_cache" style="rounded=1;whiteSpace=wrap;html=1;verticalAlign=top;absoluteArcSize=1;fillColor=#ffcc99;strokeColor=#36393d;" vertex="1" parent="1">
          <mxGeometry x="230" y="265" width="130" height="150" as="geometry" />
        </mxCell>
        <mxCell id="4fcKTC8SZaugYzXGXpfN-15" value="kmem_cache_cpu" style="rounded=0;whiteSpace=wrap;html=1;" vertex="1" parent="1">
          <mxGeometry x="240" y="300" width="110" height="25" as="geometry" />
        </mxCell>
        <mxCell id="4fcKTC8SZaugYzXGXpfN-16" value="kmem_cache_node" style="rounded=0;whiteSpace=wrap;html=1;" vertex="1" parent="1">
          <mxGeometry x="240" y="375" width="110" height="25" as="geometry" />
        </mxCell>
        <mxCell id="4fcKTC8SZaugYzXGXpfN-17" value="name" style="rounded=0;whiteSpace=wrap;html=1;" vertex="1" parent="1">
          <mxGeometry x="240" y="325" width="110" height="25" as="geometry" />
        </mxCell>
        <mxCell id="4fcKTC8SZaugYzXGXpfN-18" value="..." style="rounded=0;whiteSpace=wrap;html=1;" vertex="1" parent="1">
          <mxGeometry x="240" y="350" width="110" height="25" as="geometry" />
        </mxCell>
        <mxCell id="4fcKTC8SZaugYzXGXpfN-19" value="N" style="rounded=1;whiteSpace=wrap;html=1;verticalAlign=bottom;absoluteArcSize=1;align=left;fillColor=#dae8fc;strokeColor=#6c8ebf;" vertex="1" parent="1">
          <mxGeometry x="440" y="120" width="130" height="150" as="geometry" />
        </mxCell>
        <mxCell id="4fcKTC8SZaugYzXGXpfN-20" value="..." style="rounded=1;whiteSpace=wrap;html=1;verticalAlign=bottom;absoluteArcSize=1;align=left;fillColor=#dae8fc;strokeColor=#6c8ebf;" vertex="1" parent="1">
          <mxGeometry x="450" y="130" width="130" height="150" as="geometry" />
        </mxCell>
        <mxCell id="4fcKTC8SZaugYzXGXpfN-21" value="1" style="rounded=1;whiteSpace=wrap;html=1;verticalAlign=bottom;absoluteArcSize=1;align=left;fillColor=#dae8fc;strokeColor=#6c8ebf;" vertex="1" parent="1">
          <mxGeometry x="460" y="140" width="130" height="150" as="geometry" />
        </mxCell>
        <mxCell id="4fcKTC8SZaugYzXGXpfN-22" value="kmem_cache_cpu" style="rounded=1;whiteSpace=wrap;html=1;verticalAlign=top;absoluteArcSize=1;fillColor=#dae8fc;strokeColor=#6c8ebf;" vertex="1" parent="1">
          <mxGeometry x="470" y="150" width="130" height="150" as="geometry" />
        </mxCell>
        <mxCell id="4fcKTC8SZaugYzXGXpfN-23" value="void **freelist;" style="rounded=0;whiteSpace=wrap;html=1;" vertex="1" parent="1">
          <mxGeometry x="480" y="185" width="110" height="25" as="geometry" />
        </mxCell>
        <mxCell id="4fcKTC8SZaugYzXGXpfN-24" style="rounded=0;orthogonalLoop=1;jettySize=auto;html=1;exitX=1;exitY=0.5;exitDx=0;exitDy=0;entryX=0;entryY=0.5;entryDx=0;entryDy=0;" edge="1" parent="1" source="4fcKTC8SZaugYzXGXpfN-25" target="4fcKTC8SZaugYzXGXpfN-39">
          <mxGeometry relative="1" as="geometry" />
        </mxCell>
        <mxCell id="4fcKTC8SZaugYzXGXpfN-25" value="struct page *partial" style="rounded=0;whiteSpace=wrap;html=1;" vertex="1" parent="1">
          <mxGeometry x="480" y="260" width="110" height="25" as="geometry" />
        </mxCell>
        <mxCell id="4fcKTC8SZaugYzXGXpfN-26" style="edgeStyle=orthogonalEdgeStyle;rounded=0;orthogonalLoop=1;jettySize=auto;html=1;exitX=1;exitY=0.5;exitDx=0;exitDy=0;entryX=0;entryY=0.5;entryDx=0;entryDy=0;" edge="1" parent="1" source="4fcKTC8SZaugYzXGXpfN-27" target="4fcKTC8SZaugYzXGXpfN-31">
          <mxGeometry relative="1" as="geometry" />
        </mxCell>
        <mxCell id="4fcKTC8SZaugYzXGXpfN-27" value="struct page *pages;" style="rounded=0;whiteSpace=wrap;html=1;" vertex="1" parent="1">
          <mxGeometry x="480" y="235" width="110" height="25" as="geometry" />
        </mxCell>
        <mxCell id="4fcKTC8SZaugYzXGXpfN-28" value="..." style="rounded=0;whiteSpace=wrap;html=1;" vertex="1" parent="1">
          <mxGeometry x="480" y="210" width="110" height="25" as="geometry" />
        </mxCell>
        <mxCell id="4fcKTC8SZaugYzXGXpfN-29" style="edgeStyle=orthogonalEdgeStyle;rounded=1;orthogonalLoop=1;jettySize=auto;html=1;exitX=1;exitY=0.5;exitDx=0;exitDy=0;entryX=0;entryY=0.5;entryDx=0;entryDy=0;curved=0;" edge="1" parent="1" source="4fcKTC8SZaugYzXGXpfN-15" target="4fcKTC8SZaugYzXGXpfN-22">
          <mxGeometry relative="1" as="geometry">
            <mxPoint x="350" y="288" as="sourcePoint" />
            <mxPoint x="450" y="225" as="targetPoint" />
          </mxGeometry>
        </mxCell>
        <mxCell id="4fcKTC8SZaugYzXGXpfN-30" style="edgeStyle=orthogonalEdgeStyle;rounded=0;orthogonalLoop=1;jettySize=auto;html=1;exitX=1;exitY=0.5;exitDx=0;exitDy=0;entryX=0;entryY=0.5;entryDx=0;entryDy=0;endArrow=none;endFill=0;" edge="1" parent="1" source="4fcKTC8SZaugYzXGXpfN-31" target="4fcKTC8SZaugYzXGXpfN-32">
          <mxGeometry relative="1" as="geometry" />
        </mxCell>
        <mxCell id="4fcKTC8SZaugYzXGXpfN-31" value="slab" style="rounded=1;whiteSpace=wrap;html=1;fillColor=#f8cecc;strokeColor=#b85450;" vertex="1" parent="1">
          <mxGeometry x="640" y="232" width="40" height="30" as="geometry" />
        </mxCell>
        <mxCell id="4fcKTC8SZaugYzXGXpfN-32" value="" style="rounded=0;whiteSpace=wrap;html=1;fillColor=#b0e3e6;strokeColor=#0e8088;" vertex="1" parent="1">
          <mxGeometry x="700" y="237.5" width="30" height="20" as="geometry" />
        </mxCell>
        <mxCell id="4fcKTC8SZaugYzXGXpfN-33" style="edgeStyle=orthogonalEdgeStyle;rounded=0;orthogonalLoop=1;jettySize=auto;html=1;exitX=1;exitY=0.5;exitDx=0;exitDy=0;entryX=0;entryY=0.5;entryDx=0;entryDy=0;endArrow=none;endFill=0;" edge="1" parent="1" source="4fcKTC8SZaugYzXGXpfN-32" target="4fcKTC8SZaugYzXGXpfN-34">
          <mxGeometry relative="1" as="geometry">
            <mxPoint x="741" y="247.5" as="sourcePoint" />
          </mxGeometry>
        </mxCell>
        <mxCell id="4fcKTC8SZaugYzXGXpfN-34" value="" style="rounded=0;whiteSpace=wrap;html=1;fillColor=#b0e3e6;strokeColor=#0e8088;" vertex="1" parent="1">
          <mxGeometry x="750" y="237" width="30" height="20" as="geometry" />
        </mxCell>
        <mxCell id="4fcKTC8SZaugYzXGXpfN-35" style="edgeStyle=orthogonalEdgeStyle;rounded=0;orthogonalLoop=1;jettySize=auto;html=1;exitX=1;exitY=0.5;exitDx=0;exitDy=0;entryX=0;entryY=0.5;entryDx=0;entryDy=0;endArrow=none;endFill=0;" edge="1" parent="1" source="4fcKTC8SZaugYzXGXpfN-34" target="4fcKTC8SZaugYzXGXpfN-36">
          <mxGeometry relative="1" as="geometry">
            <mxPoint x="799" y="247.5" as="sourcePoint" />
          </mxGeometry>
        </mxCell>
        <mxCell id="4fcKTC8SZaugYzXGXpfN-36" value="" style="rounded=0;whiteSpace=wrap;html=1;fillColor=#b0e3e6;strokeColor=#0e8088;" vertex="1" parent="1">
          <mxGeometry x="797" y="237" width="30" height="20" as="geometry" />
        </mxCell>
        <mxCell id="4fcKTC8SZaugYzXGXpfN-37" style="edgeStyle=orthogonalEdgeStyle;rounded=0;orthogonalLoop=1;jettySize=auto;html=1;exitX=0.5;exitY=1;exitDx=0;exitDy=0;entryX=0.5;entryY=0;entryDx=0;entryDy=0;endArrow=none;endFill=0;" edge="1" parent="1" source="4fcKTC8SZaugYzXGXpfN-39" target="4fcKTC8SZaugYzXGXpfN-43">
          <mxGeometry relative="1" as="geometry" />
        </mxCell>
        <mxCell id="4fcKTC8SZaugYzXGXpfN-38" style="edgeStyle=orthogonalEdgeStyle;rounded=0;orthogonalLoop=1;jettySize=auto;html=1;exitX=1;exitY=0.5;exitDx=0;exitDy=0;entryX=0;entryY=0.5;entryDx=0;entryDy=0;" edge="1" parent="1" source="4fcKTC8SZaugYzXGXpfN-39" target="4fcKTC8SZaugYzXGXpfN-48">
          <mxGeometry relative="1" as="geometry" />
        </mxCell>
        <mxCell id="4fcKTC8SZaugYzXGXpfN-39" value="slab" style="rounded=1;whiteSpace=wrap;html=1;fillColor=#f8cecc;strokeColor=#b85450;" vertex="1" parent="1">
          <mxGeometry x="640" y="280" width="40" height="30" as="geometry" />
        </mxCell>
        <mxCell id="4fcKTC8SZaugYzXGXpfN-40" style="edgeStyle=orthogonalEdgeStyle;rounded=0;orthogonalLoop=1;jettySize=auto;html=1;exitX=1;exitY=0.5;exitDx=0;exitDy=0;entryX=0;entryY=0.5;entryDx=0;entryDy=0;endArrow=none;endFill=0;" edge="1" parent="1" target="4fcKTC8SZaugYzXGXpfN-41">
          <mxGeometry relative="1" as="geometry">
            <mxPoint x="827" y="247" as="sourcePoint" />
          </mxGeometry>
        </mxCell>
        <mxCell id="4fcKTC8SZaugYzXGXpfN-41" value="..." style="rounded=0;whiteSpace=wrap;html=1;fillColor=#b0e3e6;strokeColor=#0e8088;" vertex="1" parent="1">
          <mxGeometry x="844" y="237" width="30" height="20" as="geometry" />
        </mxCell>
        <mxCell id="4fcKTC8SZaugYzXGXpfN-42" style="edgeStyle=orthogonalEdgeStyle;rounded=0;orthogonalLoop=1;jettySize=auto;html=1;exitX=0.5;exitY=1;exitDx=0;exitDy=0;entryX=0.5;entryY=0;entryDx=0;entryDy=0;endArrow=none;endFill=0;fontSize=12;fillColor=#b0e3e6;strokeColor=#0e8088;" edge="1" parent="1" source="4fcKTC8SZaugYzXGXpfN-43" target="4fcKTC8SZaugYzXGXpfN-45">
          <mxGeometry relative="1" as="geometry" />
        </mxCell>
        <mxCell id="4fcKTC8SZaugYzXGXpfN-43" value="" style="rounded=0;whiteSpace=wrap;html=1;fillColor=#b0e3e6;strokeColor=#0e8088;" vertex="1" parent="1">
          <mxGeometry x="645" y="327.5" width="30" height="20" as="geometry" />
        </mxCell>
        <mxCell id="4fcKTC8SZaugYzXGXpfN-44" style="edgeStyle=orthogonalEdgeStyle;rounded=0;orthogonalLoop=1;jettySize=auto;html=1;exitX=0.5;exitY=1;exitDx=0;exitDy=0;entryX=0.5;entryY=0;entryDx=0;entryDy=0;endArrow=none;endFill=0;fontSize=12;fillColor=#b0e3e6;strokeColor=#0e8088;" edge="1" parent="1" source="4fcKTC8SZaugYzXGXpfN-45" target="4fcKTC8SZaugYzXGXpfN-46">
          <mxGeometry relative="1" as="geometry" />
        </mxCell>
        <mxCell id="4fcKTC8SZaugYzXGXpfN-45" value="" style="rounded=0;whiteSpace=wrap;html=1;fillColor=#b0e3e6;strokeColor=#0e8088;" vertex="1" parent="1">
          <mxGeometry x="645" y="364" width="30" height="20" as="geometry" />
        </mxCell>
        <mxCell id="4fcKTC8SZaugYzXGXpfN-46" value="" style="rounded=0;whiteSpace=wrap;html=1;fillColor=#b0e3e6;strokeColor=#0e8088;" vertex="1" parent="1">
          <mxGeometry x="645" y="400" width="30" height="20" as="geometry" />
        </mxCell>
        <mxCell id="4fcKTC8SZaugYzXGXpfN-47" style="edgeStyle=orthogonalEdgeStyle;rounded=0;orthogonalLoop=1;jettySize=auto;html=1;exitX=1;exitY=0.5;exitDx=0;exitDy=0;entryX=0;entryY=0.5;entryDx=0;entryDy=0;" edge="1" parent="1" source="4fcKTC8SZaugYzXGXpfN-48" target="4fcKTC8SZaugYzXGXpfN-50">
          <mxGeometry relative="1" as="geometry" />
        </mxCell>
        <mxCell id="4fcKTC8SZaugYzXGXpfN-48" value="slab" style="rounded=1;whiteSpace=wrap;html=1;fillColor=#f8cecc;strokeColor=#b85450;" vertex="1" parent="1">
          <mxGeometry x="710" y="280" width="40" height="30" as="geometry" />
        </mxCell>
        <mxCell id="4fcKTC8SZaugYzXGXpfN-49" style="edgeStyle=orthogonalEdgeStyle;rounded=0;orthogonalLoop=1;jettySize=auto;html=1;exitX=1;exitY=0.5;exitDx=0;exitDy=0;entryX=0;entryY=0.5;entryDx=0;entryDy=0;" edge="1" parent="1" source="4fcKTC8SZaugYzXGXpfN-50" target="4fcKTC8SZaugYzXGXpfN-63">
          <mxGeometry relative="1" as="geometry" />
        </mxCell>
        <mxCell id="4fcKTC8SZaugYzXGXpfN-50" value="slab" style="rounded=1;whiteSpace=wrap;html=1;fillColor=#f8cecc;strokeColor=#b85450;" vertex="1" parent="1">
          <mxGeometry x="780" y="280" width="40" height="30" as="geometry" />
        </mxCell>
        <mxCell id="4fcKTC8SZaugYzXGXpfN-51" style="edgeStyle=orthogonalEdgeStyle;rounded=0;orthogonalLoop=1;jettySize=auto;html=1;exitX=0.5;exitY=1;exitDx=0;exitDy=0;entryX=0.5;entryY=0;entryDx=0;entryDy=0;endArrow=none;endFill=0;" edge="1" parent="1" target="4fcKTC8SZaugYzXGXpfN-53">
          <mxGeometry relative="1" as="geometry">
            <mxPoint x="730" y="310" as="sourcePoint" />
          </mxGeometry>
        </mxCell>
        <mxCell id="4fcKTC8SZaugYzXGXpfN-52" style="edgeStyle=orthogonalEdgeStyle;rounded=0;orthogonalLoop=1;jettySize=auto;html=1;exitX=0.5;exitY=1;exitDx=0;exitDy=0;entryX=0.5;entryY=0;entryDx=0;entryDy=0;endArrow=none;endFill=0;fontSize=12;fillColor=#b0e3e6;strokeColor=#0e8088;" edge="1" parent="1" source="4fcKTC8SZaugYzXGXpfN-53" target="4fcKTC8SZaugYzXGXpfN-55">
          <mxGeometry relative="1" as="geometry" />
        </mxCell>
        <mxCell id="4fcKTC8SZaugYzXGXpfN-53" value="" style="rounded=0;whiteSpace=wrap;html=1;fillColor=#b0e3e6;strokeColor=#0e8088;" vertex="1" parent="1">
          <mxGeometry x="715" y="327.5" width="30" height="20" as="geometry" />
        </mxCell>
        <mxCell id="4fcKTC8SZaugYzXGXpfN-54" style="edgeStyle=orthogonalEdgeStyle;rounded=0;orthogonalLoop=1;jettySize=auto;html=1;exitX=0.5;exitY=1;exitDx=0;exitDy=0;entryX=0.5;entryY=0;entryDx=0;entryDy=0;endArrow=none;endFill=0;fontSize=12;fillColor=#b0e3e6;strokeColor=#0e8088;" edge="1" parent="1" source="4fcKTC8SZaugYzXGXpfN-55" target="4fcKTC8SZaugYzXGXpfN-56">
          <mxGeometry relative="1" as="geometry" />
        </mxCell>
        <mxCell id="4fcKTC8SZaugYzXGXpfN-55" value="" style="rounded=0;whiteSpace=wrap;html=1;fillColor=#b0e3e6;strokeColor=#0e8088;" vertex="1" parent="1">
          <mxGeometry x="715" y="364" width="30" height="20" as="geometry" />
        </mxCell>
        <mxCell id="4fcKTC8SZaugYzXGXpfN-56" value="" style="rounded=0;whiteSpace=wrap;html=1;fillColor=#b0e3e6;strokeColor=#0e8088;" vertex="1" parent="1">
          <mxGeometry x="715" y="400" width="30" height="20" as="geometry" />
        </mxCell>
        <mxCell id="4fcKTC8SZaugYzXGXpfN-57" style="edgeStyle=orthogonalEdgeStyle;rounded=0;orthogonalLoop=1;jettySize=auto;html=1;exitX=0.5;exitY=1;exitDx=0;exitDy=0;entryX=0.5;entryY=0;entryDx=0;entryDy=0;endArrow=none;endFill=0;" edge="1" parent="1" target="4fcKTC8SZaugYzXGXpfN-59">
          <mxGeometry relative="1" as="geometry">
            <mxPoint x="800" y="310" as="sourcePoint" />
          </mxGeometry>
        </mxCell>
        <mxCell id="4fcKTC8SZaugYzXGXpfN-58" style="edgeStyle=orthogonalEdgeStyle;rounded=0;orthogonalLoop=1;jettySize=auto;html=1;exitX=0.5;exitY=1;exitDx=0;exitDy=0;entryX=0.5;entryY=0;entryDx=0;entryDy=0;endArrow=none;endFill=0;fontSize=12;fillColor=#b0e3e6;strokeColor=#0e8088;" edge="1" parent="1" source="4fcKTC8SZaugYzXGXpfN-59" target="4fcKTC8SZaugYzXGXpfN-61">
          <mxGeometry relative="1" as="geometry" />
        </mxCell>
        <mxCell id="4fcKTC8SZaugYzXGXpfN-59" value="" style="rounded=0;whiteSpace=wrap;html=1;fillColor=#b0e3e6;strokeColor=#0e8088;" vertex="1" parent="1">
          <mxGeometry x="785" y="327.5" width="30" height="20" as="geometry" />
        </mxCell>
        <mxCell id="4fcKTC8SZaugYzXGXpfN-60" style="edgeStyle=orthogonalEdgeStyle;rounded=0;orthogonalLoop=1;jettySize=auto;html=1;exitX=0.5;exitY=1;exitDx=0;exitDy=0;entryX=0.5;entryY=0;entryDx=0;entryDy=0;endArrow=none;endFill=0;fontSize=12;fillColor=#b0e3e6;strokeColor=#0e8088;" edge="1" parent="1" source="4fcKTC8SZaugYzXGXpfN-61" target="4fcKTC8SZaugYzXGXpfN-62">
          <mxGeometry relative="1" as="geometry" />
        </mxCell>
        <mxCell id="4fcKTC8SZaugYzXGXpfN-61" value="" style="rounded=0;whiteSpace=wrap;html=1;fillColor=#b0e3e6;strokeColor=#0e8088;" vertex="1" parent="1">
          <mxGeometry x="785" y="364" width="30" height="20" as="geometry" />
        </mxCell>
        <mxCell id="4fcKTC8SZaugYzXGXpfN-62" value="" style="rounded=0;whiteSpace=wrap;html=1;fillColor=#b0e3e6;strokeColor=#0e8088;" vertex="1" parent="1">
          <mxGeometry x="785" y="400" width="30" height="20" as="geometry" />
        </mxCell>
        <mxCell id="4fcKTC8SZaugYzXGXpfN-63" value="..." style="rounded=1;whiteSpace=wrap;html=1;fillColor=#f8cecc;strokeColor=#b85450;" vertex="1" parent="1">
          <mxGeometry x="844" y="280" width="40" height="30" as="geometry" />
        </mxCell>
        <mxCell id="4fcKTC8SZaugYzXGXpfN-64" value="N" style="rounded=1;whiteSpace=wrap;html=1;verticalAlign=bottom;absoluteArcSize=1;align=left;fillColor=#d5e8d4;strokeColor=#82b366;" vertex="1" parent="1">
          <mxGeometry x="360" y="440" width="155" height="125" as="geometry" />
        </mxCell>
        <mxCell id="4fcKTC8SZaugYzXGXpfN-65" value="..." style="rounded=1;whiteSpace=wrap;html=1;verticalAlign=bottom;absoluteArcSize=1;align=left;fillColor=#d5e8d4;strokeColor=#82b366;" vertex="1" parent="1">
          <mxGeometry x="370" y="450" width="155" height="125" as="geometry" />
        </mxCell>
        <mxCell id="4fcKTC8SZaugYzXGXpfN-66" value="1" style="rounded=1;whiteSpace=wrap;html=1;verticalAlign=bottom;absoluteArcSize=1;align=left;fillColor=#d5e8d4;strokeColor=#82b366;" vertex="1" parent="1">
          <mxGeometry x="382.5" y="460" width="155" height="125" as="geometry" />
        </mxCell>
        <mxCell id="4fcKTC8SZaugYzXGXpfN-67" value="kmem_cache_node" style="rounded=1;whiteSpace=wrap;html=1;verticalAlign=top;absoluteArcSize=1;fillColor=#d5e8d4;strokeColor=#82b366;" vertex="1" parent="1">
          <mxGeometry x="395" y="470" width="155" height="125" as="geometry" />
        </mxCell>
        <mxCell id="4fcKTC8SZaugYzXGXpfN-68" value="spinlock_t list_lock;" style="rounded=0;whiteSpace=wrap;html=1;" vertex="1" parent="1">
          <mxGeometry x="405" y="505" width="135" height="25" as="geometry" />
        </mxCell>
        <mxCell id="4fcKTC8SZaugYzXGXpfN-69" style="edgeStyle=orthogonalEdgeStyle;rounded=0;orthogonalLoop=1;jettySize=auto;html=1;exitX=1;exitY=0.5;exitDx=0;exitDy=0;entryX=0;entryY=0.5;entryDx=0;entryDy=0;" edge="1" parent="1" source="4fcKTC8SZaugYzXGXpfN-70" target="4fcKTC8SZaugYzXGXpfN-75">
          <mxGeometry relative="1" as="geometry" />
        </mxCell>
        <mxCell id="4fcKTC8SZaugYzXGXpfN-70" value="struct list_head partial;" style="rounded=0;whiteSpace=wrap;html=1;" vertex="1" parent="1">
          <mxGeometry x="405" y="555" width="135" height="25" as="geometry" />
        </mxCell>
        <mxCell id="4fcKTC8SZaugYzXGXpfN-71" value="unsigned long nr_partial;" style="rounded=0;whiteSpace=wrap;html=1;" vertex="1" parent="1">
          <mxGeometry x="405" y="530" width="135" height="25" as="geometry" />
        </mxCell>
        <mxCell id="4fcKTC8SZaugYzXGXpfN-72" style="edgeStyle=orthogonalEdgeStyle;rounded=1;orthogonalLoop=1;jettySize=auto;html=1;exitX=0.5;exitY=1;exitDx=0;exitDy=0;entryX=0;entryY=0.5;entryDx=0;entryDy=0;curved=0;" edge="1" parent="1" source="4fcKTC8SZaugYzXGXpfN-16" target="4fcKTC8SZaugYzXGXpfN-67">
          <mxGeometry relative="1" as="geometry">
            <mxPoint x="295" y="375" as="sourcePoint" />
            <mxPoint x="470" y="533" as="targetPoint" />
          </mxGeometry>
        </mxCell>
        <mxCell id="4fcKTC8SZaugYzXGXpfN-73" style="edgeStyle=orthogonalEdgeStyle;rounded=0;orthogonalLoop=1;jettySize=auto;html=1;exitX=0.5;exitY=1;exitDx=0;exitDy=0;entryX=0.5;entryY=0;entryDx=0;entryDy=0;endArrow=none;endFill=0;" edge="1" parent="1" source="4fcKTC8SZaugYzXGXpfN-75" target="4fcKTC8SZaugYzXGXpfN-77">
          <mxGeometry relative="1" as="geometry" />
        </mxCell>
        <mxCell id="4fcKTC8SZaugYzXGXpfN-74" style="edgeStyle=orthogonalEdgeStyle;rounded=0;orthogonalLoop=1;jettySize=auto;html=1;exitX=1;exitY=0.5;exitDx=0;exitDy=0;entryX=0;entryY=0.5;entryDx=0;entryDy=0;" edge="1" parent="1" source="4fcKTC8SZaugYzXGXpfN-75" target="4fcKTC8SZaugYzXGXpfN-82">
          <mxGeometry relative="1" as="geometry" />
        </mxCell>
        <mxCell id="4fcKTC8SZaugYzXGXpfN-75" value="slab" style="rounded=1;whiteSpace=wrap;html=1;fillColor=#f8cecc;strokeColor=#b85450;" vertex="1" parent="1">
          <mxGeometry x="600" y="552" width="40" height="30" as="geometry" />
        </mxCell>
        <mxCell id="4fcKTC8SZaugYzXGXpfN-76" style="edgeStyle=orthogonalEdgeStyle;rounded=0;orthogonalLoop=1;jettySize=auto;html=1;exitX=0.5;exitY=1;exitDx=0;exitDy=0;entryX=0.5;entryY=0;entryDx=0;entryDy=0;endArrow=none;endFill=0;fontSize=12;fillColor=#b0e3e6;strokeColor=#0e8088;" edge="1" parent="1" source="4fcKTC8SZaugYzXGXpfN-77" target="4fcKTC8SZaugYzXGXpfN-79">
          <mxGeometry relative="1" as="geometry" />
        </mxCell>
        <mxCell id="4fcKTC8SZaugYzXGXpfN-77" value="" style="rounded=0;whiteSpace=wrap;html=1;fillColor=#b0e3e6;strokeColor=#0e8088;" vertex="1" parent="1">
          <mxGeometry x="605" y="599.5" width="30" height="20" as="geometry" />
        </mxCell>
        <mxCell id="4fcKTC8SZaugYzXGXpfN-78" style="edgeStyle=orthogonalEdgeStyle;rounded=0;orthogonalLoop=1;jettySize=auto;html=1;exitX=0.5;exitY=1;exitDx=0;exitDy=0;entryX=0.5;entryY=0;entryDx=0;entryDy=0;endArrow=none;endFill=0;fontSize=12;fillColor=#b0e3e6;strokeColor=#0e8088;" edge="1" parent="1" source="4fcKTC8SZaugYzXGXpfN-79" target="4fcKTC8SZaugYzXGXpfN-80">
          <mxGeometry relative="1" as="geometry" />
        </mxCell>
        <mxCell id="4fcKTC8SZaugYzXGXpfN-79" value="" style="rounded=0;whiteSpace=wrap;html=1;fillColor=#b0e3e6;strokeColor=#0e8088;" vertex="1" parent="1">
          <mxGeometry x="605" y="636" width="30" height="20" as="geometry" />
        </mxCell>
        <mxCell id="4fcKTC8SZaugYzXGXpfN-80" value="" style="rounded=0;whiteSpace=wrap;html=1;fillColor=#b0e3e6;strokeColor=#0e8088;" vertex="1" parent="1">
          <mxGeometry x="605" y="672" width="30" height="20" as="geometry" />
        </mxCell>
        <mxCell id="4fcKTC8SZaugYzXGXpfN-81" style="edgeStyle=orthogonalEdgeStyle;rounded=0;orthogonalLoop=1;jettySize=auto;html=1;exitX=1;exitY=0.5;exitDx=0;exitDy=0;entryX=0;entryY=0.5;entryDx=0;entryDy=0;" edge="1" parent="1" source="4fcKTC8SZaugYzXGXpfN-82" target="4fcKTC8SZaugYzXGXpfN-84">
          <mxGeometry relative="1" as="geometry" />
        </mxCell>
        <mxCell id="4fcKTC8SZaugYzXGXpfN-82" value="slab" style="rounded=1;whiteSpace=wrap;html=1;fillColor=#f8cecc;strokeColor=#b85450;" vertex="1" parent="1">
          <mxGeometry x="670" y="552" width="40" height="30" as="geometry" />
        </mxCell>
        <mxCell id="4fcKTC8SZaugYzXGXpfN-83" style="edgeStyle=orthogonalEdgeStyle;rounded=0;orthogonalLoop=1;jettySize=auto;html=1;exitX=1;exitY=0.5;exitDx=0;exitDy=0;entryX=0;entryY=0.5;entryDx=0;entryDy=0;" edge="1" parent="1" source="4fcKTC8SZaugYzXGXpfN-84" target="4fcKTC8SZaugYzXGXpfN-97">
          <mxGeometry relative="1" as="geometry" />
        </mxCell>
        <mxCell id="4fcKTC8SZaugYzXGXpfN-84" value="slab" style="rounded=1;whiteSpace=wrap;html=1;fillColor=#f8cecc;strokeColor=#b85450;" vertex="1" parent="1">
          <mxGeometry x="740" y="552" width="40" height="30" as="geometry" />
        </mxCell>
        <mxCell id="4fcKTC8SZaugYzXGXpfN-85" style="edgeStyle=orthogonalEdgeStyle;rounded=0;orthogonalLoop=1;jettySize=auto;html=1;exitX=0.5;exitY=1;exitDx=0;exitDy=0;entryX=0.5;entryY=0;entryDx=0;entryDy=0;endArrow=none;endFill=0;" edge="1" parent="1" target="4fcKTC8SZaugYzXGXpfN-87">
          <mxGeometry relative="1" as="geometry">
            <mxPoint x="690" y="582" as="sourcePoint" />
          </mxGeometry>
        </mxCell>
        <mxCell id="4fcKTC8SZaugYzXGXpfN-86" style="edgeStyle=orthogonalEdgeStyle;rounded=0;orthogonalLoop=1;jettySize=auto;html=1;exitX=0.5;exitY=1;exitDx=0;exitDy=0;entryX=0.5;entryY=0;entryDx=0;entryDy=0;endArrow=none;endFill=0;fontSize=12;fillColor=#b0e3e6;strokeColor=#0e8088;" edge="1" parent="1" source="4fcKTC8SZaugYzXGXpfN-87" target="4fcKTC8SZaugYzXGXpfN-89">
          <mxGeometry relative="1" as="geometry" />
        </mxCell>
        <mxCell id="4fcKTC8SZaugYzXGXpfN-87" value="" style="rounded=0;whiteSpace=wrap;html=1;fillColor=#b0e3e6;strokeColor=#0e8088;" vertex="1" parent="1">
          <mxGeometry x="675" y="599.5" width="30" height="20" as="geometry" />
        </mxCell>
        <mxCell id="4fcKTC8SZaugYzXGXpfN-88" style="edgeStyle=orthogonalEdgeStyle;rounded=0;orthogonalLoop=1;jettySize=auto;html=1;exitX=0.5;exitY=1;exitDx=0;exitDy=0;entryX=0.5;entryY=0;entryDx=0;entryDy=0;endArrow=none;endFill=0;fontSize=12;fillColor=#b0e3e6;strokeColor=#0e8088;" edge="1" parent="1" source="4fcKTC8SZaugYzXGXpfN-89" target="4fcKTC8SZaugYzXGXpfN-90">
          <mxGeometry relative="1" as="geometry" />
        </mxCell>
        <mxCell id="4fcKTC8SZaugYzXGXpfN-89" value="" style="rounded=0;whiteSpace=wrap;html=1;fillColor=#b0e3e6;strokeColor=#0e8088;" vertex="1" parent="1">
          <mxGeometry x="675" y="636" width="30" height="20" as="geometry" />
        </mxCell>
        <mxCell id="4fcKTC8SZaugYzXGXpfN-90" value="" style="rounded=0;whiteSpace=wrap;html=1;fillColor=#b0e3e6;strokeColor=#0e8088;" vertex="1" parent="1">
          <mxGeometry x="675" y="672" width="30" height="20" as="geometry" />
        </mxCell>
        <mxCell id="4fcKTC8SZaugYzXGXpfN-91" style="edgeStyle=orthogonalEdgeStyle;rounded=0;orthogonalLoop=1;jettySize=auto;html=1;exitX=0.5;exitY=1;exitDx=0;exitDy=0;entryX=0.5;entryY=0;entryDx=0;entryDy=0;endArrow=none;endFill=0;" edge="1" parent="1" target="4fcKTC8SZaugYzXGXpfN-93">
          <mxGeometry relative="1" as="geometry">
            <mxPoint x="760" y="582" as="sourcePoint" />
          </mxGeometry>
        </mxCell>
        <mxCell id="4fcKTC8SZaugYzXGXpfN-92" style="edgeStyle=orthogonalEdgeStyle;rounded=0;orthogonalLoop=1;jettySize=auto;html=1;exitX=0.5;exitY=1;exitDx=0;exitDy=0;entryX=0.5;entryY=0;entryDx=0;entryDy=0;endArrow=none;endFill=0;fontSize=12;fillColor=#b0e3e6;strokeColor=#0e8088;" edge="1" parent="1" source="4fcKTC8SZaugYzXGXpfN-93" target="4fcKTC8SZaugYzXGXpfN-95">
          <mxGeometry relative="1" as="geometry" />
        </mxCell>
        <mxCell id="4fcKTC8SZaugYzXGXpfN-93" value="" style="rounded=0;whiteSpace=wrap;html=1;fillColor=#b0e3e6;strokeColor=#0e8088;" vertex="1" parent="1">
          <mxGeometry x="745" y="599.5" width="30" height="20" as="geometry" />
        </mxCell>
        <mxCell id="4fcKTC8SZaugYzXGXpfN-94" style="edgeStyle=orthogonalEdgeStyle;rounded=0;orthogonalLoop=1;jettySize=auto;html=1;exitX=0.5;exitY=1;exitDx=0;exitDy=0;entryX=0.5;entryY=0;entryDx=0;entryDy=0;endArrow=none;endFill=0;fontSize=12;fillColor=#b0e3e6;strokeColor=#0e8088;" edge="1" parent="1" source="4fcKTC8SZaugYzXGXpfN-95" target="4fcKTC8SZaugYzXGXpfN-96">
          <mxGeometry relative="1" as="geometry" />
        </mxCell>
        <mxCell id="4fcKTC8SZaugYzXGXpfN-95" value="" style="rounded=0;whiteSpace=wrap;html=1;fillColor=#b0e3e6;strokeColor=#0e8088;" vertex="1" parent="1">
          <mxGeometry x="745" y="636" width="30" height="20" as="geometry" />
        </mxCell>
        <mxCell id="4fcKTC8SZaugYzXGXpfN-96" value="" style="rounded=0;whiteSpace=wrap;html=1;fillColor=#b0e3e6;strokeColor=#0e8088;" vertex="1" parent="1">
          <mxGeometry x="745" y="672" width="30" height="20" as="geometry" />
        </mxCell>
        <mxCell id="4fcKTC8SZaugYzXGXpfN-97" value="..." style="rounded=1;whiteSpace=wrap;html=1;fillColor=#f8cecc;strokeColor=#b85450;" vertex="1" parent="1">
          <mxGeometry x="804" y="552" width="40" height="30" as="geometry" />
        </mxCell>
      </root>
    </mxGraphModel>
  </diagram>
  <diagram id="g8lPamLlqutlnhdVjhrj" name="第 4 页">
    <mxGraphModel dx="1220" dy="1018" grid="1" gridSize="10" guides="1" tooltips="1" connect="1" arrows="1" fold="1" page="1" pageScale="1" pageWidth="827" pageHeight="1169" math="0" shadow="0">
      <root>
        <mxCell id="0" />
        <mxCell id="1" parent="0" />
      </root>
    </mxGraphModel>
  </diagram>
</mxfile>
